<svg width="57" height="57" viewBox="0 0 57 57" fill="none" xmlns="http://www.w3.org/2000/svg">
<g clip-path="url(#clip0_3_9810)">
<path d="M0.0865999 10.6783C-0.0336431 9.82135 -0.0192139 8.96442 0.0865999 8.10749C0.0914096 8.00752 0.0914096 7.90754 0.0962194 7.81233C0.182794 7.73616 0.187604 7.64094 0.144317 7.54097C0.187604 7.47908 0.206843 7.41243 0.192414 7.34102C0.408851 6.7126 0.630098 6.07943 0.846536 5.45101C0.957159 5.28439 1.06297 5.113 1.11107 4.91305C1.19765 4.86545 1.24574 4.78928 1.25055 4.6893C1.6209 4.12754 2.02492 3.59434 2.44336 3.07066C2.75119 2.86595 3.00129 2.60887 3.22254 2.31847C3.46302 2.16612 3.68427 1.9995 3.88628 1.79955C3.98728 1.79479 4.04981 1.74242 4.08829 1.65197C4.23258 1.5996 4.35763 1.52343 4.46345 1.41393C4.56445 1.41393 4.63179 1.36632 4.67988 1.27587C5.12238 1.0664 5.56006 0.861689 6.00256 0.652217C6.51239 0.499875 7.02222 0.347532 7.53686 0.195189C7.60419 0.185668 7.66672 0.171385 7.73406 0.161864C7.86873 0.195189 7.99378 0.171385 8.10921 0.0952141C8.17655 0.0856927 8.24389 0.080932 8.31122 0.0714105C8.59981 0.0856927 8.88839 0.0856927 9.16735 -1.22935e-07C9.36455 0.0333249 9.56656 0.0333249 9.76376 -1.22935e-07C10.0427 0.080932 10.3313 0.0952141 10.6199 0.0618891C10.7161 0.109496 10.8123 0.119018 10.9133 0.0999748C11.0287 0.180907 11.1586 0.195189 11.2932 0.171385C11.3606 0.180907 11.4231 0.190428 11.4904 0.20471C11.5434 0.257078 11.6059 0.280882 11.678 0.247557C11.7357 0.290403 11.8031 0.304685 11.8752 0.295164C11.9281 0.347532 11.9907 0.371335 12.0628 0.342771C12.1205 0.390378 12.1879 0.40466 12.2552 0.395139C12.3947 0.499875 12.5582 0.542721 12.7314 0.557003C12.7987 0.60461 12.8708 0.628414 12.9574 0.623653C13.0199 0.709346 13.1065 0.747432 13.2123 0.742671C13.8376 1.03783 14.4388 1.38061 15.0256 1.74242C15.0641 1.83287 15.1314 1.88524 15.2324 1.89476C15.901 2.46129 16.531 3.0659 17.089 3.7324C17.0986 3.83237 17.1515 3.89902 17.2429 3.93711C17.5507 4.47031 17.8585 5.00351 18.1663 5.53671C18.3491 6.04134 18.5319 6.54598 18.7098 7.05061C18.7002 7.12202 18.7098 7.18867 18.7579 7.2458C18.7195 7.35054 18.7435 7.44099 18.8205 7.52192C18.806 7.59333 18.8157 7.65998 18.8589 7.72187C18.8157 7.85517 18.8349 7.97895 18.9167 8.09321C18.8974 8.16462 18.907 8.23127 18.9455 8.29316C18.9263 8.70258 18.9167 9.112 19.0177 9.51666C18.9792 9.74518 18.9744 9.97369 19.0513 10.1927C18.9984 10.3879 19.008 10.5735 19.1139 10.7497C19.0946 10.8211 19.1042 10.8877 19.1475 10.9496C19.1812 11.5733 19.3351 12.1636 19.6381 12.7111C19.6333 12.8016 19.6622 12.8825 19.7295 12.9444C19.7006 13.0491 19.7487 13.1205 19.8353 13.1776C19.8978 13.4442 20.0325 13.6728 20.1816 13.8918C20.1816 13.9917 20.2297 14.0679 20.3211 14.1155C20.3307 14.2202 20.3884 14.3012 20.4654 14.3678C20.4702 14.4678 20.5183 14.5392 20.6145 14.5821C20.6145 14.6154 20.6289 14.6392 20.6578 14.6535C20.6674 14.7534 20.7203 14.8201 20.8117 14.8629C20.8213 14.9391 20.8646 14.9962 20.9367 15.0296C20.9464 15.1343 21.0089 15.201 21.1003 15.239C21.1676 15.3866 21.2686 15.5152 21.4129 15.6009C21.4321 15.7008 21.4899 15.7675 21.5909 15.7913C21.6534 15.9198 21.7496 16.015 21.8794 16.0817C21.9612 16.2531 22.0815 16.3816 22.2738 16.4387C23.0626 17.1909 23.9813 17.7336 25.0202 18.0907C25.2607 18.2668 25.53 18.3525 25.8282 18.3716C25.8859 18.4192 25.9533 18.4382 26.0302 18.4287C26.0783 18.4906 26.1409 18.5096 26.2178 18.4763C26.2755 18.5192 26.3429 18.5334 26.4198 18.5239C26.4679 18.5906 26.5304 18.6001 26.6026 18.5668C26.6651 18.6096 26.7373 18.6239 26.8094 18.6049C26.9489 18.7191 27.1076 18.7191 27.2759 18.6763C27.3385 18.7144 27.4106 18.7239 27.4828 18.7048C28.1465 18.8524 28.8103 18.8524 29.474 18.7096C29.5798 18.7334 29.6808 18.7286 29.7722 18.6715C29.9069 18.7144 30.0367 18.7144 30.1474 18.6144C30.2532 18.6334 30.3542 18.6191 30.4456 18.5573C30.5177 18.5953 30.5802 18.5858 30.6283 18.5192C30.7005 18.5287 30.7678 18.5144 30.8303 18.4716C30.9025 18.5049 30.965 18.4906 31.0131 18.4287C31.0901 18.4382 31.1574 18.4144 31.2151 18.3668C31.4171 18.3859 31.5903 18.324 31.7394 18.1859C32.4224 17.9955 33.0428 17.686 33.62 17.2814C33.721 17.2766 33.7931 17.2195 33.8364 17.1338C33.8701 17.1338 33.8941 17.1243 33.9086 17.0957C34.0096 17.0862 34.0769 17.0338 34.1154 16.9434C34.1923 16.9338 34.25 16.891 34.2885 16.8196C34.3895 16.8053 34.4569 16.7482 34.4905 16.653C35.3274 16.0436 35.996 15.2819 36.5154 14.3916C36.602 14.344 36.6645 14.2821 36.6597 14.1726C36.7752 14.0441 36.8665 13.9013 36.9002 13.7251C36.9868 13.6775 37.0349 13.6061 37.0204 13.5061C37.1166 13.3824 37.1888 13.2491 37.1984 13.092C37.285 13.0301 37.3331 12.9491 37.3235 12.8396C37.3716 12.773 37.4004 12.6968 37.3908 12.6159C37.5303 12.4635 37.5928 12.2826 37.5784 12.0827C37.6313 12.0256 37.6457 11.9637 37.6409 11.8875C37.7563 11.7161 37.8044 11.5257 37.7756 11.321C37.8237 11.2638 37.8333 11.1972 37.8237 11.121C37.9006 11.0068 37.9247 10.883 37.8766 10.7497C37.9343 10.6592 37.9439 10.5593 37.9199 10.4593C38.0161 10.2117 38.0353 9.96417 37.968 9.70709C38.0449 9.42145 38.0305 9.13104 38.0016 8.84064C38.093 8.63117 38.093 8.40742 38.0545 8.18842C38.1123 8.09797 38.1267 7.99799 38.1074 7.89326C38.1844 7.81233 38.194 7.71711 38.1507 7.61714C38.194 7.55525 38.2084 7.4886 38.194 7.41719C38.2662 7.36958 38.2806 7.31245 38.2325 7.24104C38.2373 7.19343 38.2469 7.14583 38.2517 7.09822C38.4297 6.8221 38.5018 6.50789 38.5451 6.18892C38.6125 6.12227 38.6365 6.04134 38.6365 5.94613C38.7135 5.889 38.7664 5.81759 38.7375 5.71285C38.8049 5.65096 38.8337 5.57479 38.8337 5.48434C38.9203 5.42245 38.9732 5.34628 38.9636 5.23678C39.1079 5.04159 39.2281 4.83212 39.3051 4.59885C39.3916 4.55124 39.4494 4.48459 39.4494 4.37985C39.4782 4.36081 39.4926 4.33701 39.4926 4.30368C39.584 4.2656 39.6369 4.19419 39.6369 4.09421C39.6658 4.07517 39.685 4.05137 39.685 4.01804C39.7764 3.97995 39.8293 3.90854 39.8438 3.81333C39.9015 3.76572 39.9544 3.71335 39.9736 3.63242C40.065 3.59434 40.1227 3.53245 40.142 3.43247C40.5941 2.98497 41.051 2.53746 41.5031 2.08519C41.6089 2.07091 41.6763 2.01378 41.7147 1.91857C42.3833 1.4663 43.0807 1.06164 43.8118 0.714107C43.9176 0.723628 43.9993 0.685542 44.0619 0.59985C44.1484 0.60461 44.2254 0.580807 44.2927 0.533199C44.4659 0.523678 44.6294 0.476071 44.7689 0.371335C44.841 0.380857 44.9084 0.366575 44.9661 0.314207C45.0382 0.342771 45.1008 0.318968 45.1537 0.2666C45.2258 0.276121 45.2932 0.261839 45.3509 0.218993C45.423 0.252318 45.4856 0.228514 45.5385 0.176146C45.6058 0.166625 45.6683 0.157103 45.7357 0.147582C45.8703 0.171385 45.9954 0.152343 46.1108 0.0761713C46.2118 0.0952141 46.3128 0.0904534 46.409 0.0380856C46.6687 0.0761713 46.9188 0.0618891 47.169 -0.019043C47.3998 0.014282 47.6307 0.014282 47.8616 -0.019043C48.1117 0.0618891 48.3666 0.0761713 48.6215 0.0380856C48.7129 0.0856927 48.8139 0.0952141 48.9149 0.0761713C49.0303 0.152343 49.1602 0.171385 49.2949 0.142821C49.3622 0.152343 49.4247 0.166625 49.4921 0.176146C49.67 0.280882 49.8624 0.314207 50.0644 0.309446C50.1221 0.357053 50.1895 0.376096 50.2616 0.366575C50.4011 0.47131 50.5646 0.514157 50.7378 0.528439C50.8051 0.580807 50.8821 0.599849 50.9686 0.595089C51.0312 0.680782 51.1129 0.718867 51.2187 0.704585C51.6901 0.947381 52.1663 1.19494 52.6376 1.43773C52.6809 1.52819 52.753 1.5758 52.854 1.58056C53.5947 2.12804 54.2681 2.74693 54.8934 3.41819C54.9078 3.52293 54.9655 3.58958 55.0569 3.62766C55.0761 3.70383 55.1242 3.76096 55.1916 3.80381C55.1964 3.90378 55.2541 3.97043 55.3455 4.01328C55.3455 4.0466 55.3599 4.07517 55.3936 4.08945C55.3936 4.18943 55.4513 4.25608 55.5379 4.29892C55.5379 4.33225 55.5523 4.36081 55.5812 4.37509C55.5812 4.47983 55.6389 4.54648 55.7255 4.59885C55.913 4.97018 56.1054 5.33676 56.293 5.70809C56.269 5.81283 56.3122 5.88424 56.394 5.94137C56.394 6.03182 56.4132 6.11751 56.4806 6.18416C56.4806 6.38411 56.5383 6.56978 56.673 6.72212C56.6633 6.86971 56.6874 7.00777 56.7692 7.13631C56.7355 7.20772 56.7595 7.26961 56.8076 7.32197C56.8221 7.38862 56.8365 7.45051 56.8461 7.51716C56.8125 7.65046 56.8413 7.77424 56.9135 7.8885C56.9231 7.95515 56.9327 8.0218 56.9423 8.08369C56.9086 8.27888 56.9375 8.46454 57.0048 8.65021C57.0048 9.13104 57.0048 9.61188 57.0048 10.0927C56.9327 10.3069 56.9038 10.5259 56.9327 10.7544C56.9231 10.8211 56.9135 10.883 56.9038 10.9496C56.8413 11.0353 56.8124 11.1258 56.8557 11.2305C56.8124 11.2876 56.8028 11.3543 56.8124 11.4257C56.6585 11.897 56.4854 12.3636 56.3796 12.8492C56.3122 12.911 56.2882 12.992 56.293 13.0824C56.091 13.3205 55.9659 13.5966 55.8842 13.8965C55.6389 14.2726 55.3984 14.6487 55.1531 15.0248C55.0569 15.0629 54.9992 15.1295 54.9896 15.2343C54.6625 15.5866 54.3354 15.9389 54.0084 16.2864C53.9074 16.3054 53.84 16.3626 53.8112 16.4625C53.3014 16.8244 52.7867 17.1862 52.2769 17.548C52.1759 17.5527 52.0989 17.6003 52.046 17.686C51.8488 17.7336 51.6805 17.8384 51.5073 17.9384C51.1129 18.0621 50.7282 18.2002 50.3578 18.3859C50.2857 18.3811 50.2183 18.3954 50.1606 18.443C49.9586 18.4382 49.7662 18.4668 49.5931 18.5858C49.5209 18.5715 49.4536 18.5858 49.3911 18.6287C49.29 18.5906 49.1938 18.5953 49.1121 18.681C49.0063 18.662 48.9053 18.6715 48.8139 18.7286C48.6215 18.6906 48.4291 18.681 48.2511 18.7858C47.7317 18.8 47.2171 18.8143 46.6976 18.8286C46.3465 18.7762 45.9954 18.7572 45.6539 18.8762C45.4519 18.8334 45.2595 18.8715 45.0671 18.9191C44.8747 18.8762 44.6823 18.8619 44.4996 18.9667C44.3264 18.9333 44.1677 18.981 44.0042 19.0238C43.8743 18.9714 43.7541 18.981 43.653 19.0905C43.5424 19.0524 43.4366 19.0762 43.3308 19.1143C43.2009 19.0666 43.0807 19.0809 42.9797 19.1904C42.7055 19.1809 42.4314 19.1999 42.1765 19.3094C42.1091 19.2809 42.0466 19.2856 41.9937 19.338C41.4983 19.3999 41.0125 19.4951 40.546 19.6665C40.4738 19.6332 40.4113 19.657 40.3584 19.7093C40.2862 19.6998 40.2189 19.7141 40.1612 19.7665C40.089 19.7379 40.0265 19.7617 39.9736 19.8093C39.9015 19.8046 39.8341 19.8188 39.7764 19.8712C39.4013 19.8998 39.055 20.0236 38.7231 20.1854C38.6509 20.1807 38.5836 20.1949 38.5259 20.2473C38.4201 20.2187 38.3383 20.2568 38.2758 20.3378C38.1892 20.3282 38.1171 20.3568 38.0449 20.3996C37.7515 20.4568 37.4629 20.5329 37.2225 20.7186C37.1311 20.7091 37.0541 20.7377 36.9868 20.7995C36.8762 20.7757 36.804 20.8281 36.7415 20.909C36.6501 20.9043 36.5731 20.9328 36.5058 20.9947C36.323 20.9852 36.1884 21.0709 36.0681 21.1947C35.9767 21.1947 35.895 21.2185 35.8324 21.2851C35.6545 21.2756 35.5246 21.3613 35.4092 21.4803C35.0821 21.5803 34.7791 21.7422 34.4857 21.9183C34.3174 21.9421 34.1731 22.0135 34.0625 22.1468C33.8268 22.2135 33.6248 22.342 33.4276 22.4848C33.3218 22.4848 33.2496 22.5372 33.2015 22.6229C33.0957 22.6324 33.0188 22.6896 32.9466 22.7657C32.8408 22.7657 32.7687 22.8228 32.7157 22.9085C32.6099 22.9228 32.533 22.98 32.4656 23.0561C32.3598 23.0561 32.2925 23.1085 32.2444 23.1989C31.369 23.7036 30.5417 24.2796 29.777 24.9414C29.6712 24.9557 29.6087 25.0128 29.5702 25.108C29.4163 25.1746 29.2864 25.2699 29.1998 25.4127C29.094 25.4317 29.0315 25.4888 28.993 25.5841C28.8054 25.684 28.6515 25.8221 28.5265 25.9887C28.3822 26.0268 28.286 26.1173 28.2331 26.2553C27.6655 26.7076 27.1557 27.2122 26.6892 27.7692C26.5208 27.8549 26.3862 27.9787 26.3236 28.1644C26.1457 28.2786 26.0206 28.4405 25.9148 28.6214C25.8186 28.6595 25.7561 28.7261 25.7368 28.8261C25.4627 29.0689 25.2366 29.3498 25.0442 29.664C24.9529 29.7021 24.8951 29.7687 24.8807 29.8735C24.7076 30.0306 24.5681 30.2162 24.4671 30.4257C24.3757 30.4638 24.318 30.5304 24.3132 30.6352C23.9284 31.1017 23.5821 31.5921 23.3127 32.13C23.2214 32.1729 23.1733 32.2443 23.1685 32.349C22.9953 32.5775 22.827 32.8108 22.7404 33.0869C22.649 33.1298 22.6057 33.2012 22.6153 33.3012C22.245 33.8867 21.9083 34.4961 21.6726 35.1483C21.182 35.9672 20.8598 36.8574 20.5856 37.7667C20.5183 37.8857 20.4558 38.0095 20.4606 38.1523C20.4029 38.2047 20.3788 38.2618 20.3981 38.338C20.3307 38.4332 20.3019 38.538 20.3211 38.6522C20.095 39.0236 19.994 39.4282 19.9556 39.8567C19.9075 39.9138 19.8882 39.9852 19.8978 40.0566C19.8353 40.1042 19.8209 40.1661 19.8594 40.2375C19.8161 40.2994 19.7968 40.3661 19.8065 40.4375C19.691 40.6422 19.6285 40.8564 19.6622 41.0897C19.6189 41.1516 19.6044 41.2182 19.6141 41.2896C19.5275 41.3658 19.5227 41.461 19.5612 41.5658C19.5179 41.6277 19.5034 41.6943 19.5179 41.7705C19.4313 41.8467 19.4265 41.9419 19.4698 42.0418C19.4121 42.1323 19.3976 42.2323 19.4169 42.337C19.3159 42.4465 19.3159 42.575 19.3543 42.7083C19.3159 42.7702 19.3062 42.8416 19.3255 42.9131C19.2197 43.0559 19.2245 43.213 19.263 43.3748C19.2101 43.4701 19.2004 43.57 19.2245 43.67C19.1187 43.8461 19.1187 44.0366 19.162 44.227C19.1042 44.3508 19.0946 44.4841 19.1235 44.6174C19.0177 44.8935 19.0177 45.1744 19.0706 45.46C18.984 45.8409 18.9936 46.2265 19.0273 46.6121C18.9311 47.0787 18.9455 47.5547 18.9648 48.0261C18.9118 48.1213 18.9022 48.2165 18.9263 48.3212C18.8397 48.4355 18.8253 48.5593 18.8589 48.6926C18.8205 48.7544 18.8108 48.8211 18.8253 48.8877C18.6473 49.4543 18.4694 50.0256 18.2914 50.5921C18.1038 50.9634 17.921 51.3348 17.7335 51.7061C17.6421 51.7489 17.594 51.8203 17.594 51.9203C17.4834 52.0251 17.4064 52.1488 17.3535 52.2917C17.2621 52.3297 17.2092 52.3916 17.2044 52.4916C16.9735 52.7249 16.7763 52.9867 16.5839 53.2486C16.4493 53.3057 16.3531 53.3961 16.305 53.539C16.0164 53.8008 15.7278 54.0579 15.4344 54.3197C15.3286 54.3292 15.2613 54.3864 15.2276 54.4816C14.9102 54.6863 14.5927 54.8958 14.2753 55.1005C14.1743 55.1052 14.1021 55.1481 14.054 55.2338C13.7895 55.3147 13.549 55.448 13.3133 55.5813C13.2075 55.5765 13.1258 55.6146 13.0632 55.7003C12.9767 55.7003 12.8997 55.7194 12.8324 55.7765C12.563 55.8193 12.3081 55.8955 12.0676 56.0241C11.9955 56.0145 11.9281 56.0288 11.8704 56.0764C11.7983 56.0431 11.7357 56.0669 11.6828 56.1193C11.6107 56.1097 11.5482 56.1193 11.4856 56.1573C11.3798 56.124 11.2884 56.1478 11.2019 56.2145C11.1345 56.224 11.0672 56.2335 11.0047 56.243C10.8411 56.2192 10.6776 56.2192 10.5333 56.3145C10.3986 56.2907 10.2688 56.2954 10.1389 56.343C9.72047 56.3097 9.30202 56.3049 8.88358 56.3478C8.75372 56.2906 8.62385 56.2907 8.48918 56.3145C8.34008 56.2288 8.18136 56.2145 8.01783 56.2526C7.9553 56.2145 7.88797 56.205 7.81582 56.2145C7.47433 56.1002 7.12803 56.0098 6.7673 55.9764C6.5701 55.8812 6.37291 55.8003 6.15166 55.786C6.08913 55.7003 6.00737 55.6622 5.90155 55.6718C5.05504 55.2909 4.25663 54.8243 3.50631 54.2816C3.47264 54.1864 3.40531 54.1245 3.3043 54.1102C2.58284 53.4295 1.89986 52.7106 1.38522 51.8584C1.27941 51.6823 1.16879 51.5109 1.06297 51.3395C1.00045 51.1062 0.909062 50.8872 0.735912 50.7063C0.740722 50.6206 0.711864 50.5492 0.658957 50.4826C0.577191 50.1208 0.466568 49.7732 0.298228 49.4447C0.307847 49.3733 0.293418 49.3067 0.245321 49.2448C0.283798 49.1734 0.269369 49.1115 0.202033 49.0639C0.216462 48.9925 0.202033 48.9258 0.153936 48.8639C0.187604 48.7306 0.187604 48.6069 0.0865999 48.4974C0.0865999 48.4307 0.0817902 48.3593 0.0817902 48.2927C-0.0288334 47.4024 -0.0336431 46.5169 0.0817902 45.6267C0.0914096 45.5648 0.0962194 45.4648 0.0962194 45.3696C0.182794 45.2886 0.187604 45.1982 0.149126 45.0935C0.192414 45.0316 0.206843 44.9649 0.197223 44.8935C0.25975 44.8459 0.274179 44.784 0.235701 44.7126C0.283798 44.6555 0.303037 44.5841 0.288608 44.5126C0.355944 44.465 0.375183 44.4079 0.336705 44.3317C0.442519 44.1366 0.519475 43.9366 0.533904 43.7129C0.784009 43.3082 0.966779 42.8702 1.14474 42.4275C1.63052 41.661 2.14997 40.9231 2.81371 40.2899C4.60774 38.5713 6.75287 37.6525 9.24431 37.5953C10.9085 37.5573 12.4957 37.2716 13.9578 36.467C16.8244 34.8865 18.5078 32.4871 18.907 29.2593C19.5275 24.2511 15.9298 19.4856 10.5429 18.8667C9.97058 18.8 9.3886 18.8239 8.81624 18.7715C5.233 18.4335 2.6117 16.6815 0.94273 13.5252C0.875394 13.4014 0.808058 13.2729 0.740722 13.1491C0.553143 12.5826 0.370373 12.016 0.182794 11.4495C0.197223 11.3733 0.177985 11.3067 0.134697 11.2448C0.177985 11.1448 0.173175 11.0544 0.0865999 10.9734C0.0914096 10.8782 0.0865999 10.7782 0.0865999 10.6783ZM47.472 14.1012C50.0933 14.1107 52.2336 12.0208 52.2432 9.44049C52.2576 6.83162 50.1221 4.7131 47.4864 4.7131C44.8699 4.7131 42.744 6.81734 42.7392 9.4024C42.7392 11.9875 44.8555 14.0917 47.472 14.1012ZM4.74241 9.41669C4.74722 12.0113 6.85869 14.0965 9.47999 14.1012C12.1109 14.106 14.256 11.9779 14.2368 9.3786C14.2176 6.7983 12.082 4.70834 9.46556 4.7131C6.85388 4.71786 4.74241 6.8221 4.74241 9.41669ZM4.74241 46.9549C4.7376 49.5638 6.82983 51.6585 9.44632 51.668C12.0965 51.6775 14.2464 49.5733 14.2368 46.9787C14.2272 44.3984 12.0917 42.2751 9.49441 42.2751C6.88274 42.2751 4.74722 44.3746 4.74241 46.9549Z" fill="#6998EF"/>
<path d="M57 41.7467C56.9664 50.216 50.0404 57.0286 41.4839 56.9952C32.9611 56.9667 26.0783 50.1017 26.1072 41.661C26.1361 33.2393 33.0861 26.4267 41.6186 26.4553C50.1173 26.4838 57.0289 33.3631 57 41.7467ZM30.8785 41.7229C30.8736 47.5643 35.6305 52.2774 41.5368 52.2869C47.4095 52.2964 52.224 47.6309 52.2384 41.7562C52.2529 35.872 47.4816 31.1922 41.5993 31.1636C35.6641 31.1446 30.8785 35.8624 30.8785 41.7229Z" fill="#6998EF"/>
</g>
<defs>
<clipPath id="clip0_3_9810">
<rect width="57" height="57" fill="white"/>
</clipPath>
</defs>
</svg>
