<svg width="164" height="40" viewBox="0 0 164 40" fill="none" xmlns="http://www.w3.org/2000/svg">
<g clip-path="url(#clip0_688_1425)">
<path d="M164 35.8024C162.604 35.8024 161.209 35.8024 159.797 35.8024C159.87 36.4259 160.227 36.8183 160.726 37.0494C161.354 37.3406 162.004 37.3279 162.633 36.9956C162.756 36.9291 162.86 36.85 162.958 36.7519C163.116 36.6 163.119 36.6031 163.283 36.7582C163.315 36.7867 163.343 36.8183 163.372 36.8468C163.732 37.233 163.732 37.3343 163.315 37.6444C162.914 37.9451 162.462 38.1097 161.951 38.1508C161.54 38.1825 161.136 38.173 160.748 38.0685C159.725 37.7932 159.052 37.1444 158.787 36.1062C158.544 35.1504 158.8 34.2958 159.406 33.552C159.741 33.1437 160.208 32.9222 160.719 32.7956C161.528 32.5962 162.279 32.7196 162.961 33.1975C163.489 33.5678 163.836 34.0647 163.934 34.7168C163.943 34.7706 163.95 34.8212 163.997 34.856C164 35.1694 164 35.4859 164 35.8024ZM161.401 35.0427C161.78 35.0427 162.156 35.0491 162.535 35.0396C162.696 35.0364 162.933 35.1219 162.999 34.9826C163.072 34.8307 162.955 34.6218 162.879 34.4509C162.857 34.4034 162.825 34.3623 162.797 34.318C162.544 33.9033 162.159 33.6913 161.698 33.6153C160.934 33.4887 160.018 33.8654 159.816 34.8244C159.775 35.0269 159.775 35.0396 159.987 35.0396C160.457 35.0459 160.931 35.0427 161.401 35.0427Z" fill="#3649B8"/>
<path d="M64.5214 3.07921C64.3446 3.32292 64.3004 3.55713 64.2183 3.76919C63.8173 4.80733 63.4604 5.86129 63.0405 6.88994C62.7374 7.64005 62.4753 8.40283 62.1595 9.14979C61.9069 9.74482 61.7049 10.3652 61.4775 10.9729C61.3259 11.3748 61.1712 11.7736 61.0165 12.1756C60.9944 12.2326 60.966 12.2959 60.9218 12.337C60.8113 12.4541 60.6629 12.4003 60.5902 12.2231C60.3566 11.6597 60.1229 11.0995 59.8893 10.5392C59.4598 9.51377 59.0336 8.48829 58.6041 7.46281C58.1463 6.37087 57.6821 5.27892 57.2243 4.18381C57.0601 3.78818 56.9022 3.38938 56.7412 2.99058C56.7159 2.92412 56.7033 2.84816 56.618 2.82284C56.5296 2.86715 56.558 2.94944 56.558 3.01591C56.5549 5.49098 56.5517 7.96605 56.5612 10.4411C56.5612 10.7513 56.618 11.0646 56.7096 11.3685C56.7885 11.6375 56.9591 11.8211 57.2274 11.9129C57.4358 11.9857 57.6442 12.0521 57.8653 12.0806C57.9726 12.0933 58.0074 12.1503 58.0074 12.2484C58.0042 12.356 57.9474 12.3971 57.8463 12.3971C57.7295 12.3971 57.6095 12.4161 57.499 12.3908C56.9559 12.2737 56.4096 12.356 55.8665 12.337C55.6708 12.3307 55.4782 12.4225 55.2761 12.3971C55.1814 12.3845 55.1119 12.3687 55.1087 12.2547C55.1056 12.1566 55.1403 12.106 55.235 12.068C55.374 12.0173 55.5192 12.0078 55.655 11.935C55.8508 11.8306 55.996 11.6945 56.056 11.4761C56.1223 11.2324 56.1823 10.9919 56.1823 10.7355C56.1823 8.09266 56.1823 5.44667 56.1823 2.80385C56.1823 2.74054 56.1855 2.67724 56.1791 2.61394C56.1412 2.21198 55.9423 2.00309 55.5445 1.96827C55.4371 1.95878 55.3424 1.91446 55.2382 1.9018C55.1024 1.88598 55.0993 1.79103 55.115 1.69291C55.134 1.57897 55.2287 1.57897 55.3108 1.59163C56.0623 1.71823 56.8201 1.63594 57.5748 1.6391C57.8842 1.6391 58.2 1.5853 58.5126 1.58213C58.7178 1.57897 58.8283 1.6486 58.9104 1.85116C59.3683 2.96843 59.8608 4.06987 60.3061 5.1903C60.7797 6.38986 61.2944 7.57359 61.7838 8.76998C61.8027 8.81429 61.7964 8.88709 61.8659 8.88709C61.9448 8.89025 61.9638 8.82379 61.9859 8.76365C62.1753 8.25091 62.3648 7.74134 62.5574 7.23176C62.8226 6.53545 63.0973 5.8423 63.3626 5.14915C63.5836 4.56995 63.7983 3.99074 64.0162 3.41154C64.2088 2.90196 64.4014 2.38922 64.5909 1.87965C64.6477 1.72456 64.7424 1.64543 64.9192 1.6486C65.3297 1.6581 65.7402 1.63594 66.1507 1.65493C66.7096 1.68342 67.259 1.5853 67.8147 1.58846C67.8779 1.58846 67.941 1.58846 68.0042 1.58846C68.0831 1.58846 68.1557 1.60112 68.1652 1.69924C68.1747 1.79419 68.1368 1.86699 68.0421 1.89231C67.9315 1.92079 67.8179 1.95878 67.7042 1.95878C67.3221 1.96194 67.0695 2.26579 67.038 2.69623C67.0316 2.76903 67.0348 2.84499 67.0348 2.91779C67.0348 5.63657 67.0348 8.35219 67.0348 11.071C67.0348 11.2292 67.0664 11.3812 67.0853 11.5362C67.1232 11.8179 67.3063 11.935 67.5337 12.0015C67.6726 12.0395 67.8116 12.0965 67.9631 12.0838C68.0294 12.0775 68.0894 12.0996 68.1305 12.1534C68.2031 12.2452 68.1589 12.3845 68.0452 12.3908C67.7926 12.4003 67.5368 12.4161 67.2906 12.3781C67.1232 12.3528 66.959 12.337 66.7917 12.3338C66.1602 12.3338 65.5286 12.3402 64.8971 12.3307C64.4867 12.3243 64.0856 12.4288 63.6752 12.4003C63.4131 12.3813 63.3689 12.3718 63.3752 12.2294C63.3878 12.0237 63.5489 12.087 63.6594 12.0838C63.8204 12.0775 63.972 12.0395 64.1172 11.9857C64.433 11.8686 64.5687 11.5995 64.5624 11.2925C64.5466 10.7355 64.6414 10.1848 64.6382 9.62455C64.6256 7.65588 64.6319 5.68405 64.6351 3.71538C64.6382 3.51282 64.6035 3.32608 64.5214 3.07921Z" fill="#3649B8"/>
<path d="M60.9661 21.6958C61.0766 21.8636 61.1903 21.8636 61.304 21.8794C61.7113 21.9364 62.1123 22.0471 62.4565 22.2655C63.0091 22.6137 63.3627 23.1169 63.5048 23.7721C63.6595 24.4874 63.7732 25.2122 63.9942 25.9117C64.0132 25.9718 64.0321 26.0319 64.0605 26.0889C64.2594 26.4782 64.5657 26.5637 64.9415 26.3326C65.0709 26.2535 65.2257 26.0857 65.3425 26.2725C65.4372 26.4212 65.2193 26.5162 65.1215 26.5985C64.6636 26.972 64.1395 27.1935 63.5364 27.1872C63.2332 27.184 62.9333 27.1745 62.6333 27.1017C61.8881 26.9213 61.5124 26.4244 61.3577 25.7091C61.1745 24.8514 61.0798 23.9746 60.8493 23.1232C60.7483 22.7498 60.6377 22.3763 60.3441 22.0883C60.2304 21.9775 60.1041 21.9047 59.962 21.8889C59.6178 21.8509 59.2768 21.7844 58.9295 21.8097C58.6801 21.8287 58.6485 21.8509 58.6453 22.1168C58.6422 22.4966 58.6453 22.8764 58.6453 23.253C58.6453 23.981 58.6548 24.7058 58.6422 25.4337C58.639 25.6806 58.6958 25.9117 58.7211 26.1522C58.7495 26.4022 59.0179 26.5953 59.3274 26.6111C59.4568 26.6175 59.5768 26.6333 59.6936 26.6839C59.7663 26.7124 59.782 26.7694 59.7726 26.8359C59.7631 26.896 59.7189 26.9245 59.6621 26.9276C59.5989 26.9308 59.5358 26.9308 59.4726 26.9308C58.1275 26.9308 56.7792 26.9308 55.4341 26.9308C55.3804 26.9308 55.3299 26.9308 55.2762 26.9308C55.1973 26.9308 55.131 26.9118 55.1215 26.8137C55.1152 26.7219 55.1689 26.6776 55.2415 26.6523C55.2983 26.6333 55.3646 26.6175 55.4246 26.6175C55.9267 26.627 56.1982 26.2756 56.1919 25.7882C56.1761 24.5349 56.1856 23.2815 56.1856 22.0281C56.1856 20.5121 56.1856 18.9928 56.1856 17.4768C56.1856 17.404 56.1887 17.328 56.1856 17.2552C56.1572 16.771 55.933 16.5558 55.393 16.5019C55.2794 16.4893 55.112 16.5494 55.1183 16.3437C55.1247 16.1158 55.3078 16.1886 55.4246 16.1886C57.0981 16.1854 58.7716 16.1601 60.442 16.1949C61.345 16.2139 62.226 16.407 63.0122 16.9102C63.7669 17.3945 64.1205 18.42 63.9753 19.2144C63.8584 19.8569 63.5964 20.3823 63.1354 20.8254C62.7438 21.1989 62.2733 21.4173 61.7618 21.5534C61.5124 21.6198 61.2756 21.7148 60.9661 21.6958ZM58.639 19.398C58.639 20.0405 58.6358 20.683 58.639 21.3223C58.639 21.5439 58.6516 21.5534 58.8727 21.5565C59.1663 21.5597 59.4568 21.5344 59.7473 21.5027C60.5304 21.4204 61.0514 21.0375 61.285 20.2779C61.3608 20.0373 61.3924 19.7904 61.4334 19.5404C61.5408 18.9042 61.4745 18.287 61.2882 17.6825C61.1429 17.2078 60.8872 16.8121 60.3883 16.6127C59.9778 16.4481 59.5673 16.483 59.1505 16.5336C58.92 16.5621 58.7779 16.7172 58.7306 16.9451C58.6832 17.1793 58.6295 17.4135 58.6327 17.6572C58.6453 18.2396 58.639 18.8188 58.639 19.398Z" fill="#3649B8"/>
<path d="M77.0095 17.4514C77.0095 18.1856 77.0032 18.7649 77.0127 19.3441C77.0158 19.5466 76.9495 19.7365 76.9463 19.9359C76.9463 19.9866 76.9369 20.0467 77 20.0689C77.06 20.091 77.1042 20.0467 77.1295 20.0056C77.2526 19.8062 77.42 19.6479 77.5905 19.4896C77.9631 19.1478 78.3925 18.9579 78.904 18.8883C79.2892 18.8376 79.6524 18.8788 80.0155 18.9642C80.4986 19.0814 80.8712 19.3694 81.1933 19.7492C81.7111 20.3632 81.8879 21.088 82.0047 21.8539C82.0868 22.3888 82.0774 22.9269 82.049 23.4586C81.9953 24.4493 81.7363 25.3956 81.0669 26.1553C80.7386 26.5256 80.3123 26.8168 79.8197 26.975C79.0398 27.2219 78.263 27.2852 77.48 26.9908C77.3126 26.9275 77.1326 26.8706 77.0063 26.7503C76.8548 26.6079 76.6874 26.5952 76.5106 26.6174C75.9896 26.687 75.4781 26.8041 75.036 27.1079C74.9476 27.1681 74.875 27.1997 74.7834 27.1238C74.6982 27.0541 74.7045 26.9782 74.7203 26.8737C74.7708 26.5003 74.8087 26.1268 74.8055 25.747C74.7992 22.8098 74.7992 19.8726 74.8024 16.9354C74.8024 16.6696 74.7582 16.4132 74.6919 16.16C74.6003 15.8055 74.3982 15.5586 73.9972 15.546C73.9435 15.546 73.893 15.5365 73.8519 15.4985C73.8014 15.451 73.7888 15.3909 73.8014 15.3244C73.8141 15.2675 73.8583 15.239 73.9151 15.2358C73.9467 15.2326 73.9782 15.2326 74.0098 15.2326C74.0824 15.2326 74.1582 15.2295 74.2309 15.2326C75.0802 15.2548 75.9296 15.2263 76.7664 15.0871C76.9274 15.0586 76.9306 15.1187 76.9495 15.2421C77.0695 16.0334 76.9716 16.8215 77.0095 17.4514ZM79.7976 22.9712C79.6966 22.5313 79.7376 22.028 79.6745 21.5279C79.6208 21.0975 79.5576 20.6765 79.3903 20.2777C79.1819 19.7872 78.7967 19.4928 78.2662 19.5371C77.8747 19.5719 77.5589 19.7713 77.341 20.0752C77.12 20.379 76.8864 20.7082 77 21.1355C77.0221 21.2146 77.0095 21.3032 77.0095 21.3887C77.0095 22.8731 77.0095 24.3607 77.0095 25.8451C77.0095 25.9495 77.0127 26.054 76.9874 26.1584C76.9337 26.3863 76.9716 26.4781 77.1705 26.6015C77.3695 26.725 77.5905 26.7851 77.8178 26.8389C78.1525 26.918 78.462 26.8579 78.7493 26.6807C79.1503 26.4338 79.3366 26.0382 79.4724 25.6109C79.7376 24.769 79.706 23.8922 79.7976 22.9712Z" fill="#3649B8"/>
<path d="M76.5422 1.58871C76.9842 1.58871 77.4263 1.58871 77.8684 1.58871C77.9378 1.58871 78.0231 1.56972 78.061 1.65518C78.0989 1.7438 78.0704 1.82293 78.001 1.88306C77.8841 1.98751 77.7578 2.08246 77.641 2.18691C77.1895 2.58254 76.899 3.09528 76.6274 3.61751C76.2138 4.42144 75.8223 5.23486 75.4118 6.04195C75.2318 6.39643 75.0297 6.73826 74.8782 7.10857C74.8308 7.22884 74.7961 7.34279 74.7961 7.47255C74.7992 8.65312 74.7929 9.83052 74.8024 11.0111C74.8024 11.2073 74.834 11.4099 74.8845 11.5998C74.9413 11.815 75.1023 11.9606 75.3234 12.0112C75.4749 12.0461 75.6233 12.103 75.7875 12.0872C75.8949 12.0777 75.9328 12.1473 75.9328 12.2455C75.9328 12.3499 75.8791 12.4005 75.7749 12.3974C75.5255 12.3847 75.2697 12.4385 75.0234 12.3594C75.0139 12.3562 75.0045 12.3499 74.995 12.3499C74.0477 12.3278 73.1036 12.3183 72.1563 12.3594C71.9416 12.3689 71.7206 12.3911 71.4996 12.4005C71.468 12.4005 71.4364 12.4005 71.4048 12.3974C71.2943 12.3942 71.2628 12.3309 71.2659 12.2296C71.2691 12.141 71.307 12.0809 71.3954 12.0872C71.5564 12.0967 71.708 12.0492 71.8595 12.0144C72.1437 11.9448 72.2984 11.7549 72.3363 11.4605C72.4658 10.5173 72.3616 9.57099 72.4026 8.62463C72.4121 8.39675 72.3679 8.18469 72.2669 7.98846C71.989 7.45673 71.7048 6.93133 71.4206 6.40593C71.2249 6.04511 71.0196 5.69063 70.827 5.32981C70.3755 4.49107 69.9271 3.64916 69.4724 2.81042C69.3777 2.63635 69.2735 2.46543 69.1504 2.30718C69.0241 2.13943 68.882 1.97801 68.6704 1.91471C68.5662 1.88306 68.5441 1.81976 68.5504 1.72481C68.5567 1.61087 68.6325 1.59188 68.7241 1.59188C68.8283 1.59188 68.9356 1.58238 69.0398 1.59504C70.0124 1.72481 70.9912 1.64568 71.9669 1.63935C72.3079 1.63619 72.6552 1.59188 72.9994 1.59188C73.0689 1.59188 73.151 1.57605 73.1983 1.65518C73.2615 1.75963 73.1952 1.90522 73.0689 1.89889C72.8542 1.88939 72.6521 1.94953 72.4468 1.98751C72.0143 2.06664 72.0111 2.36099 72.1437 2.64584C72.3048 2.99716 72.5037 3.32949 72.6805 3.67448C73.0941 4.47524 73.5015 5.27917 73.9151 6.08309C74.0635 6.37111 74.2214 6.65913 74.3761 6.94399C74.4645 7.10857 74.515 7.10857 74.6098 6.95665C74.7045 6.80473 74.7676 6.63698 74.8371 6.47556C75.0676 5.947 75.3549 5.44692 75.6139 4.93101C75.8728 4.41511 76.1096 3.88654 76.2264 3.31683C76.2738 3.07945 76.2706 2.83258 76.2296 2.5952C76.1633 2.22805 75.8728 2.07297 75.5507 1.97485C75.4213 1.93687 75.2855 1.92737 75.1497 1.90205C75.0392 1.88306 74.9824 1.8166 74.995 1.70582C75.0076 1.58555 75.0992 1.59188 75.1844 1.59188C75.6391 1.58871 76.0907 1.58871 76.5422 1.58871Z" fill="#3649B8"/>
<path d="M65.6455 23.0159C65.6644 22.3766 65.7055 21.7341 65.9139 21.1295C66.1349 20.487 66.4948 19.93 67.0727 19.528C67.6316 19.1387 68.2504 18.9836 68.9167 18.895C69.624 18.8 70.3029 18.8887 70.9502 19.1197C71.9574 19.4774 72.6237 20.199 72.9141 21.2435C73.0247 21.6391 73.0847 22.0379 73.1036 22.4494C73.1162 22.7089 73.1762 22.9684 73.1541 23.2311C73.0878 24.0445 73.0152 24.858 72.5984 25.5954C72.2163 26.2696 71.648 26.6937 70.9312 26.9437C70.3692 27.14 69.7945 27.2254 69.204 27.1906C68.3452 27.14 67.54 26.9469 66.8516 26.3645C66.2296 25.8391 65.9296 25.1555 65.7781 24.3927C65.6928 23.9401 65.6265 23.4812 65.6455 23.0159ZM70.8238 23.209C70.8175 22.595 70.8175 22.1265 70.767 21.6549C70.7039 21.0884 70.6091 20.5345 70.3913 20.0091C70.2902 19.7622 70.1387 19.5438 69.9303 19.3793C69.7187 19.2115 69.4914 19.1229 69.2009 19.202C68.863 19.2938 68.6704 19.5312 68.5157 19.8034C68.0894 20.5567 68.0326 21.4049 67.9915 22.2373C67.9473 23.1172 67.9631 23.9971 68.0957 24.877C68.1715 25.3707 68.2852 25.8423 68.5125 26.2822C68.9072 27.045 69.7471 27.083 70.2239 26.374C70.3913 26.1272 70.4955 25.8518 70.5618 25.5669C70.7607 24.7409 70.8586 23.9116 70.8238 23.209Z" fill="#3649B8"/>
<path d="M87.0537 27.1875C86.3369 27.1875 85.7149 27.0894 85.1181 26.8235C84.1708 26.3994 83.6435 25.6398 83.3878 24.6713C83.2109 24.0098 83.1573 23.3262 83.2015 22.6425C83.2394 22.0696 83.3088 21.4873 83.5235 20.9524C83.7856 20.2972 84.2056 19.756 84.8244 19.3793C85.3202 19.0786 85.857 18.971 86.4253 18.8887C87.0474 18.8001 87.641 18.8729 88.222 19.0343C89.365 19.354 90.1386 20.0693 90.4575 21.2435C90.5807 21.7025 90.6154 22.1677 90.6596 22.6362C90.6975 23.0476 90.6596 23.4528 90.6343 23.8547C90.5807 24.7093 90.3217 25.5037 89.7376 26.1557C89.4629 26.4627 89.1156 26.6938 88.7303 26.8394C88.1683 27.0578 87.5936 27.2128 87.0537 27.1875ZM85.538 22.997C85.5096 23.6743 85.5412 24.3105 85.658 24.9435C85.7496 25.4499 85.8475 25.9437 86.138 26.3899C86.4506 26.871 86.981 27.0071 87.461 26.7001C87.7104 26.5419 87.821 26.2981 87.9346 26.0544C88.2567 25.3676 88.3325 24.6207 88.3609 23.88C88.3862 23.1806 88.4083 22.4748 88.323 21.7721C88.2725 21.3543 88.2251 20.9429 88.1178 20.5377C88.0041 20.1105 87.8557 19.6927 87.502 19.392C87.221 19.1546 86.8611 19.0533 86.5232 19.3002C86.3369 19.4363 86.1759 19.5977 86.059 19.8066C85.7875 20.3035 85.6801 20.8511 85.6075 21.3986C85.5317 21.9399 85.4907 22.4842 85.538 22.997Z" fill="#3649B8"/>
<path d="M81.6164 11.3721C81.5027 11.5051 81.4175 11.6095 81.3259 11.7076C80.9123 12.1634 80.3944 12.385 79.7882 12.4736C79.283 12.5464 78.8093 12.5021 78.3578 12.2805C77.8179 12.0146 77.5684 11.5526 77.5179 10.9702C77.5084 10.8562 77.5242 10.7391 77.5147 10.622C77.4674 9.91305 77.821 9.42563 78.3736 9.04582C78.7936 8.7578 79.2703 8.59322 79.744 8.4318C80.2302 8.26722 80.707 8.08048 81.1617 7.84627C81.449 7.69751 81.648 7.46013 81.6259 7.08665C81.6038 6.71951 81.6196 6.3492 81.6227 5.98205C81.6259 5.80164 81.6069 5.62756 81.5627 5.45348C81.4301 4.93758 81.0512 4.6274 80.5239 4.6274C80.2208 4.6274 79.9145 4.58942 79.6335 4.75401C79.5987 4.77616 79.5514 4.78249 79.5229 4.80781C79.4724 4.85529 79.3714 4.86795 79.3777 4.95657C79.384 5.04836 79.4756 5.04836 79.5387 5.08001C80.1892 5.39018 80.2934 6.10232 80.0945 6.64355C79.9271 7.09931 79.2356 7.3905 78.7367 7.25757C78.1905 7.11514 77.9284 6.74799 77.8905 6.18778C77.8431 5.50413 78.2252 5.11482 78.7462 4.80465C79.1756 4.55144 79.6524 4.44383 80.1418 4.36154C80.6155 4.28558 81.0859 4.29824 81.5532 4.31723C82.0553 4.33622 82.5542 4.44383 82.9773 4.73818C83.4604 5.07368 83.7193 5.54527 83.7667 6.13714C83.9025 7.84943 83.7919 9.56489 83.8298 11.2772C83.833 11.4133 83.8235 11.5462 83.874 11.6823C83.9751 11.9577 84.1077 12.021 84.3793 11.9007C84.455 11.8659 84.5308 11.8247 84.6066 11.7931C84.6824 11.7583 84.755 11.7709 84.7992 11.8437C84.8529 11.9292 84.7866 11.983 84.7297 12.0273C84.4613 12.2394 84.1519 12.3533 83.8204 12.4388C83.372 12.5559 82.9331 12.54 82.4879 12.4261C82.0016 12.3027 81.749 11.9798 81.6732 11.4987C81.6701 11.4671 81.6511 11.4418 81.6164 11.3721ZM81.5659 7.91906C81.3733 8.00452 81.2691 8.1691 81.1112 8.27355C80.786 8.48244 80.4607 8.70083 80.1797 8.96037C79.8766 9.23889 79.6524 9.58705 79.6619 10.0302C79.665 10.2201 79.6524 10.41 79.665 10.5967C79.7124 11.3563 80.385 11.7646 81.0796 11.3911C81.4112 11.2139 81.6574 10.9544 81.6322 10.4923C81.5911 9.74847 81.6227 9.00151 81.6196 8.25456C81.6164 8.15328 81.6448 8.04567 81.5659 7.91906Z" fill="#3649B8"/>
<path d="M104.272 22.6517C104.278 23.5189 104.357 24.1456 104.594 24.7501C104.79 25.2533 105.431 25.9212 106.242 25.9212C107 25.9212 107.6 25.6268 108.051 25.0223C108.115 24.94 108.175 24.8514 108.244 24.7754C108.298 24.7153 108.373 24.7058 108.446 24.7406C108.516 24.7754 108.506 24.845 108.506 24.9083C108.506 25.0286 108.433 25.1267 108.386 25.2312C108.064 25.9497 107.587 26.5415 106.87 26.8928C106.271 27.1904 105.633 27.2473 104.973 27.1365C104.632 27.0796 104.297 27.0163 103.984 26.8675C103.457 26.6143 103.021 26.2693 102.677 25.7756C102.2 25.0888 102.052 24.3291 102.002 23.5252C101.979 23.1486 101.989 22.7719 102.014 22.3985C102.077 21.4964 102.361 20.6735 103.012 20.0152C103.195 19.8284 103.372 19.6354 103.593 19.4834C104.098 19.1353 104.657 18.9802 105.26 18.8884C105.86 18.7966 106.425 18.8884 106.994 19.0308C107.622 19.1891 108.124 19.5246 108.38 20.1544C108.67 20.8729 108.433 21.5819 107.837 21.8572C107.486 22.0186 107.114 22.025 106.744 21.8731C106.132 21.6199 105.892 20.7083 106.394 20.107C106.526 19.9455 106.684 19.8094 106.877 19.7113C107.091 19.6005 107.085 19.5024 106.87 19.3885C106.498 19.1954 106.119 19.1733 105.718 19.3157C105.181 19.5056 104.903 19.936 104.708 20.414C104.562 20.7653 104.442 21.1356 104.395 21.5281C104.341 21.9775 104.265 22.4238 104.272 22.6517Z" fill="#3649B8"/>
<path d="M109.709 26.3614C109.797 25.6493 109.769 24.934 109.772 24.2218C109.772 24.1364 109.769 24.0446 109.886 24.0351C110 24.0256 110.063 24.0826 110.082 24.1933C110.126 24.4307 110.157 24.6681 110.214 24.9023C110.341 25.4024 110.508 25.8898 110.858 26.2854C111.291 26.776 111.853 26.9089 112.462 26.776C112.911 26.6779 113.151 26.3772 113.182 25.8645C113.214 25.3296 113.009 24.9086 112.649 24.5352C112.305 24.1775 111.9 23.8958 111.528 23.5761C110.988 23.1172 110.397 22.7089 110.041 22.0632C109.88 21.7721 109.76 21.4777 109.772 21.1422C109.779 20.9333 109.747 20.7213 109.794 20.5124C109.921 19.9553 110.271 19.566 110.742 19.2748C111.247 18.9615 111.818 18.8381 112.393 18.8539C113.009 18.8665 113.621 18.9583 114.158 19.3255C114.43 19.5122 114.622 19.4426 114.761 19.1514C114.79 19.0944 114.809 19.0343 114.834 18.9773C114.875 18.8919 114.954 18.9077 115.026 18.914C115.102 18.9203 115.134 18.9742 115.134 19.0438C115.134 19.2875 115.172 19.5344 115.127 19.7686C115.039 20.2307 115.096 20.6928 115.074 21.1517C115.071 21.2372 115.074 21.3195 115.071 21.4049C115.071 21.4872 115.042 21.5473 114.947 21.5568C114.856 21.5632 114.777 21.5537 114.752 21.4461C114.711 21.272 114.673 21.1011 114.629 20.927C114.502 20.4206 114.291 19.9585 113.899 19.5945C113.489 19.2147 112.999 19.1356 112.491 19.2622C111.821 19.4268 111.701 19.9173 111.818 20.544C111.872 20.8352 112.061 21.0599 112.27 21.2467C112.674 21.6106 113.11 21.943 113.574 22.2278C113.738 22.3291 113.864 22.4684 114.01 22.5886C114.518 23.0064 115.033 23.4179 115.311 24.0541C115.566 24.6428 115.494 25.7505 114.938 26.2918C114.474 26.7444 113.937 27.0039 113.315 27.1242C112.497 27.2793 111.711 27.197 110.972 26.7855C110.852 26.719 110.723 26.6779 110.599 26.6178C110.382 26.5102 110.262 26.5386 110.082 26.814C110.06 26.8488 110.037 26.8868 110.028 26.9279C110.003 27.045 109.93 27.0767 109.82 27.0609C109.703 27.045 109.703 26.9596 109.7 26.8741C109.709 26.7001 109.709 26.5291 109.709 26.3614Z" fill="#3649B8"/>
<path d="M92.5383 22.4942C92.5383 21.6111 92.5383 20.7249 92.5383 19.8419C92.5383 19.7786 92.5414 19.7152 92.5383 19.6519C92.5288 19.4272 92.5257 19.4177 92.3078 19.4146C92.0773 19.4082 91.8468 19.4146 91.6131 19.4114C91.5405 19.4114 91.4647 19.4114 91.3953 19.3924C91.3163 19.3734 91.2816 19.3038 91.2847 19.2215C91.2879 19.1265 91.3479 19.0949 91.43 19.0949C91.7047 19.0949 91.9762 19.0981 92.251 19.0917C92.5067 19.0854 92.5383 19.0569 92.5383 18.7942C92.5414 18.31 92.5383 17.8257 92.5414 17.3415C92.5446 17.0788 92.5478 17.0851 92.8035 17.0693C93.3719 17.0344 93.9213 16.9173 94.4518 16.7116C94.7075 16.6135 94.7454 16.6356 94.7486 16.9047C94.7549 17.4934 94.7486 18.0821 94.7486 18.6739C94.7486 18.7467 94.7517 18.8227 94.7486 18.8955C94.7391 19.0474 94.818 19.0949 94.9601 19.0949C95.3485 19.0917 95.7369 19.0949 96.1284 19.0949C96.201 19.0949 96.2768 19.0949 96.3495 19.0949C96.4284 19.0949 96.4979 19.1076 96.5105 19.2057C96.52 19.3038 96.4789 19.3734 96.3873 19.3987C96.3179 19.4146 96.2421 19.4114 96.1695 19.4114C95.8 19.4114 95.4338 19.4114 95.0643 19.4114C94.7549 19.4114 94.7517 19.4146 94.7517 19.7279C94.7517 21.475 94.7517 23.2221 94.7517 24.9692C94.7517 25.2003 94.7612 25.4345 94.7486 25.6624C94.7107 26.3999 95.2443 26.4632 95.7685 26.2954C96.0432 26.2068 96.1505 25.9472 96.3179 25.751C96.3431 25.7194 96.3589 25.6782 96.3779 25.6402C96.4158 25.5643 96.4726 25.5231 96.5547 25.5706C96.6305 25.6118 96.6589 25.6814 96.6273 25.7573C96.58 25.8745 96.5168 25.9852 96.4631 26.0992C96.1347 26.7828 95.5443 27.0962 94.837 27.1785C94.2781 27.2449 93.7318 27.1531 93.2487 26.8176C92.9519 26.6087 92.7656 26.3271 92.6678 25.9821C92.573 25.6466 92.532 25.3079 92.5383 24.9566C92.5446 24.1337 92.5383 23.3139 92.5383 22.4942Z" fill="#3649B8"/>
<path d="M130.356 33.3181C131.471 32.3844 133.1 32.5459 133.864 33.622C134.186 33.1947 134.622 32.9415 135.127 32.8117C135.891 32.6123 136.621 32.6725 137.287 33.1409C137.568 33.3403 137.77 33.5966 137.884 33.929C137.998 34.2613 138.064 34.5936 138.061 34.945C138.051 35.8913 138.058 36.8408 138.058 37.7872C138.058 38.1227 138.039 38.1385 137.698 38.1417C137.562 38.1417 137.423 38.148 137.287 38.1385C137.091 38.129 137.057 38.091 137.044 37.8885C137.041 37.8157 137.044 37.7397 137.044 37.6669C137.044 36.7934 137.041 35.9198 137.047 35.0462C137.047 34.831 137 34.6316 136.93 34.4322C136.659 33.6789 135.933 33.5745 135.352 33.6853C134.524 33.8435 134.205 34.6 134.205 35.1792C134.209 36.0211 134.209 36.863 134.205 37.7049C134.205 38.091 134.155 38.1385 133.766 38.1385C133.681 38.1385 133.599 38.1385 133.514 38.1385C133.173 38.1322 133.132 38.0942 133.132 37.7587C133.132 36.8313 133.129 35.9071 133.135 34.9798C133.135 34.7772 133.097 34.581 133.024 34.3974C132.873 34.0113 132.608 33.7612 132.181 33.6821C131.626 33.5808 130.858 33.7264 130.517 34.3531C130.359 34.6443 130.296 34.964 130.293 35.2931C130.29 36.1034 130.293 36.9136 130.293 37.7239C130.293 37.7967 130.293 37.8726 130.29 37.9454C130.284 38.072 130.211 38.1353 130.088 38.1385C129.889 38.1417 129.687 38.1417 129.488 38.1385C129.346 38.1385 129.28 38.0594 129.28 37.917C129.28 37.8537 129.28 37.7904 129.28 37.727C129.28 36.2015 129.28 34.6728 129.28 33.1472C129.28 33.0934 129.283 33.0428 129.28 32.989C129.267 32.8307 129.327 32.7547 129.494 32.7611C129.671 32.7706 129.851 32.7579 130.031 32.7642C130.249 32.7706 130.277 32.8054 130.29 33.0269C130.296 33.1092 130.274 33.1947 130.312 33.277C130.318 33.2896 130.328 33.2928 130.356 33.3181Z" fill="#3649B8"/>
<path d="M88.4967 7.96954C88.4967 9.05515 88.4999 10.1376 88.4936 11.2232C88.4936 11.5049 88.5851 11.7296 88.7998 11.9164C88.9388 12.0366 89.1061 12.043 89.2672 12.0778C89.3745 12.0999 89.4471 12.1189 89.444 12.2455C89.4408 12.3753 89.3619 12.4038 89.2545 12.3975C88.983 12.3816 88.7083 12.4386 88.4399 12.35C88.3546 12.3215 88.2536 12.3342 88.1589 12.3342C87.7073 12.3342 87.2526 12.35 86.8043 12.3278C86.4127 12.312 86.0338 12.4323 85.6454 12.3975C85.5728 12.3911 85.497 12.4006 85.4244 12.388C85.3455 12.3753 85.2887 12.3247 85.2887 12.2392C85.2887 12.1537 85.3423 12.0936 85.4244 12.0904C85.5539 12.0873 85.6739 12.0461 85.7907 12.005C86.0054 11.9322 86.1538 11.7929 86.1949 11.565C86.2359 11.3403 86.2928 11.1188 86.2896 10.8814C86.2833 9.35583 86.2833 7.83028 86.2864 6.30155C86.2864 6.0167 86.2264 5.74134 86.1759 5.46281C86.1222 5.1558 85.9107 5.00388 85.6581 4.88044C85.5823 4.84563 85.5002 4.82664 85.4181 4.80448C85.3265 4.776 85.2665 4.72219 85.2887 4.62091C85.3171 4.5038 85.4118 4.47532 85.5097 4.5038C85.8728 4.60825 86.2422 4.55761 86.6053 4.55128C87.1169 4.53862 87.6284 4.49747 88.1336 4.41201C88.462 4.35821 88.4904 4.37403 88.4904 4.71586C88.4936 5.59891 88.4904 6.48513 88.4904 7.36818C88.4967 7.57074 88.4967 7.77014 88.4967 7.96954Z" fill="#3649B8"/>
<path d="M100.142 18.9326C100.195 19.075 100.173 19.1922 100.173 19.3061C100.173 21.433 100.176 23.5599 100.173 25.6837C100.173 25.8419 100.186 25.9939 100.236 26.1489C100.328 26.4338 100.524 26.5762 100.808 26.6142C100.859 26.6205 100.912 26.6174 100.966 26.6237C101.064 26.6395 101.114 26.6965 101.117 26.7946C101.121 26.9086 101.045 26.9307 100.95 26.9307C100.877 26.9307 100.802 26.9307 100.729 26.9307C99.6239 26.9307 98.5219 26.9307 97.4168 26.9307C97.3442 26.9307 97.2684 26.9307 97.1958 26.9307C97.1042 26.9307 97.0253 26.9117 97.0253 26.7946C97.0253 26.6965 97.0789 26.6395 97.1737 26.6205C97.2052 26.6142 97.2368 26.6142 97.2684 26.6142C97.7262 26.5826 97.8967 26.3452 97.963 25.8704C97.9788 25.7565 97.9662 25.6394 97.9662 25.5223C97.9662 23.8923 97.9662 22.2591 97.9662 20.6291C97.9662 20.4613 97.9409 20.2968 97.9125 20.1322C97.8367 19.7112 97.5841 19.4928 97.1863 19.4105C97.0947 19.3915 97.0221 19.3821 97.0221 19.2681C97.0221 19.1732 97.0442 19.0972 97.1547 19.0972C97.3031 19.094 97.4484 19.094 97.5968 19.094C97.8904 19.094 98.1841 19.0877 98.4809 19.094C99.0366 19.1099 99.5829 19.0181 100.142 18.9326Z" fill="#3649B8"/>
<path d="M97.9093 37.3793C97.9093 38.1421 97.9093 38.8352 97.9093 39.5315C97.9093 39.617 97.9093 39.6993 97.9062 39.7847C97.8999 39.8955 97.843 39.9588 97.7325 39.9715C97.7104 39.9746 97.6915 39.9746 97.6694 39.9746C96.8958 40.0379 96.8958 40.0379 96.8958 39.2657C96.8958 37.2558 96.8958 35.2429 96.8958 33.2331C96.8958 33.1698 96.8958 33.1065 96.8958 33.0432C96.9021 32.7773 96.9021 32.7741 97.1547 32.7678C97.322 32.7646 97.4925 32.7615 97.6599 32.7678C97.8588 32.7773 97.8904 32.8153 97.9062 33.0115C97.9156 33.1254 97.8841 33.2426 97.9314 33.3533C98.0262 33.404 98.064 33.3217 98.1177 33.2774C98.6892 32.7963 99.346 32.6475 100.082 32.7361C100.622 32.8026 101.08 33.021 101.512 33.3312C101.762 33.5116 101.919 33.7616 102.058 34.0148C102.257 34.382 102.415 34.7776 102.39 35.2144C102.371 35.5277 102.415 35.8411 102.333 36.1544C102.043 37.2558 101.323 37.9205 100.227 38.1136C99.5765 38.2275 98.9008 38.1927 98.3324 37.7464C98.203 37.6515 98.0862 37.5344 97.9093 37.3793ZM99.6681 33.654C98.5787 33.5844 97.922 34.4484 97.9156 35.4106C97.9093 36.5405 98.5914 37.2242 99.627 37.2527C100.596 37.2812 101.367 36.5279 101.367 35.4264C101.367 34.4263 100.723 33.616 99.6681 33.654Z" fill="#3649B8"/>
<path d="M88.1494 35.841C88.2693 36.5974 88.7398 36.9899 89.4218 37.1766C89.9839 37.3317 90.5175 37.2462 91.029 36.9741C91.1522 36.9076 91.2501 36.8126 91.3448 36.7177C91.4269 36.6322 91.5027 36.6196 91.5848 36.7145C91.7205 36.8728 91.8563 37.031 91.9921 37.1924C92.0426 37.2526 92.0174 37.3127 91.97 37.3602C91.85 37.4773 91.7458 37.6102 91.6006 37.702C91.1901 37.9679 90.7512 38.123 90.2523 38.1578C89.7629 38.1926 89.2955 38.1578 88.8409 37.9932C87.9125 37.6577 87.3252 37.0089 87.12 36.034C86.9274 35.113 87.1453 34.2806 87.7483 33.5716C88.1304 33.1222 88.6419 32.8658 89.2356 32.7614C89.6934 32.6791 90.1323 32.7076 90.568 32.8342C91.0859 32.9861 91.5153 33.2773 91.8405 33.7109C92.1531 34.1223 92.3205 34.5876 92.3584 35.1035C92.371 35.2902 92.4499 35.4675 92.371 35.6574C92.3268 35.7618 92.2763 35.8125 92.1658 35.8061C92.0931 35.803 92.0173 35.8061 91.9447 35.8061C90.7985 35.8061 89.6523 35.8061 88.5062 35.8061C88.3956 35.8061 88.2788 35.7808 88.1494 35.841ZM91.3701 35.0054C91.3574 34.5971 91.1711 34.2521 90.8743 33.9989C90.3312 33.54 89.7029 33.4703 89.0524 33.733C88.5598 33.9324 88.282 34.3281 88.143 34.8281C88.1083 34.9516 88.1367 35.037 88.2883 35.037C88.342 35.037 88.3925 35.037 88.4462 35.037C89.3271 35.037 90.2081 35.037 91.089 35.037C91.1806 35.0402 91.2753 35.0624 91.3701 35.0054Z" fill="#3649B8"/>
<path d="M106.586 35.8032C105.999 35.8032 105.409 35.8001 104.821 35.8032C104.515 35.8032 104.49 35.838 104.597 36.1356C104.812 36.7338 105.27 37.0534 105.87 37.1895C106.58 37.3478 107.221 37.2117 107.764 36.7084C107.833 36.642 107.912 36.6008 107.972 36.7021C108.061 36.8509 108.193 36.9553 108.301 37.0819C108.424 37.2275 108.421 37.3288 108.272 37.4617C107.865 37.8257 107.391 38.0884 106.845 38.1327C106.422 38.1644 105.989 38.1865 105.56 38.0884C104.818 37.9175 104.221 37.5345 103.842 36.873C103.249 35.8349 103.312 34.7967 103.959 33.8092C104.351 33.211 104.935 32.8882 105.645 32.7616C106.072 32.6856 106.473 32.7205 106.883 32.8249C107.818 33.0623 108.354 33.6858 108.645 34.5752C108.737 34.86 108.774 35.1449 108.765 35.4424C108.756 35.7937 108.749 35.8064 108.38 35.8064C107.786 35.8032 107.186 35.8032 106.586 35.8032ZM106.138 35.0436C106.612 35.0436 107.082 35.0468 107.556 35.0405C107.745 35.0373 107.78 34.9898 107.726 34.8062C107.654 34.5657 107.562 34.3283 107.385 34.1384C106.88 33.5972 106.255 33.4643 105.576 33.6858C105.086 33.8441 104.733 34.1859 104.581 34.7018C104.496 34.9961 104.521 35.0405 104.815 35.0436C105.257 35.0436 105.699 35.0436 106.138 35.0436Z" fill="#3649B8"/>
<path d="M143.296 37.6286C143.189 37.6128 143.135 37.6476 143.091 37.6919C142.734 38.0306 142.304 38.154 141.821 38.1414C141.436 38.1319 141.041 38.1857 140.675 38.0148C140.211 37.7996 139.823 37.4957 139.687 36.9798C139.488 36.2202 139.759 35.6093 140.454 35.2359C140.798 35.0491 141.187 34.989 141.578 34.9795C142.052 34.97 142.525 34.9795 142.999 34.9763C143.22 34.9732 143.226 34.9605 143.233 34.7421C143.245 34.1439 142.835 33.6945 142.207 33.6533C141.566 33.6122 140.95 33.6881 140.394 34.049C140.255 34.1376 140.167 34.1059 140.078 33.9667C139.999 33.8432 139.924 33.7166 139.857 33.5869C139.791 33.4571 139.819 33.3526 139.955 33.2672C140.407 32.9823 140.896 32.8367 141.423 32.7545C141.976 32.669 142.507 32.7007 143.031 32.8779C143.744 33.1216 144.129 33.628 144.249 34.375C144.338 34.9225 144.291 35.4669 144.303 36.0113C144.316 36.6127 144.306 37.2109 144.306 37.8122C144.306 38.1129 144.281 38.1351 143.981 38.1382C143.845 38.1414 143.706 38.1414 143.571 38.1382C143.334 38.1287 143.305 38.1002 143.296 37.8597C143.293 37.7869 143.296 37.7141 143.296 37.6286ZM143.233 36.1569C143.233 36.1157 143.233 36.0714 143.233 36.0303C143.23 35.7423 143.23 35.7423 142.93 35.7391C142.532 35.7359 142.134 35.7391 141.736 35.7391C141.49 35.7391 141.262 35.8182 141.035 35.8942C140.944 35.9258 140.865 35.9796 140.811 36.0588C140.467 36.5494 140.76 37.1286 141.168 37.252C141.534 37.3628 141.897 37.4039 142.273 37.29C142.797 37.1349 143.312 36.7614 143.233 36.1569Z" fill="#3649B8"/>
<path d="M120.726 38.1351C120.151 38.1889 119.655 38.0496 119.194 37.7711C118.579 37.3945 118.143 36.8722 117.985 36.1538C117.796 35.2929 117.906 34.4794 118.437 33.7578C118.831 33.2197 119.387 32.9096 120.034 32.7766C120.524 32.6753 121.004 32.707 121.493 32.8241C122.421 33.0393 123.334 34.0205 123.422 35.0681C123.473 35.6885 123.397 36.255 123.103 36.7931C122.813 37.3217 122.38 37.7046 121.825 37.9515C121.468 38.1066 121.092 38.1857 120.726 38.1351ZM120.682 33.6534C119.595 33.5932 118.945 34.4256 118.936 35.4511C118.923 36.4829 119.728 37.2805 120.675 37.2552C121.679 37.2267 122.387 36.5367 122.399 35.4416C122.409 34.3876 121.638 33.5774 120.682 33.6534Z" fill="#3649B8"/>
<path d="M59.5261 33.4033C60.1355 32.9032 60.7639 32.6753 61.4743 32.707C62.2101 32.7418 62.8447 32.9887 63.2678 33.6407C63.3783 33.8116 63.4573 33.9952 63.4983 34.1914C63.5741 34.5491 63.6341 34.9099 63.631 35.2802C63.6246 36.0809 63.631 36.8817 63.6278 37.6825C63.6278 38.1003 63.5867 38.1446 63.1826 38.1446C62.4879 38.1446 62.5542 38.2142 62.5542 37.521C62.5542 36.657 62.5637 35.7929 62.5479 34.9289C62.5416 34.4889 62.3774 34.0965 61.9922 33.8559C61.4807 33.5394 60.6344 33.5647 60.1198 33.9857C59.7377 34.2959 59.5956 34.739 59.5893 35.2201C59.5798 36.0208 59.5861 36.8216 59.5861 37.6223C59.5861 37.6951 59.5893 37.7711 59.5861 37.8439C59.5735 38.0496 59.4977 38.1351 59.2988 38.1446C59.1093 38.1541 58.9199 38.1477 58.7304 38.1477C58.5915 38.1477 58.5157 38.0781 58.5126 37.9357C58.5126 37.8724 58.5126 37.8091 58.5126 37.7458C58.5126 36.2075 58.5126 34.6693 58.5126 33.1311C58.5126 33.0678 58.5157 33.0045 58.5126 32.9412C58.5094 32.8209 58.5726 32.7703 58.6894 32.7735C58.9104 32.7735 59.1314 32.7735 59.3525 32.7735C59.4693 32.7735 59.5261 32.8273 59.523 32.9444C59.5261 33.0741 59.5261 33.2071 59.5261 33.4033Z" fill="#3649B8"/>
<path d="M74.2371 33.3846C74.4897 33.2137 74.6981 33.0554 74.9381 32.9542C75.8159 32.5838 76.6621 32.606 77.4862 33.1251C77.8304 33.3403 77.9978 33.6758 78.1367 34.0271C78.2314 34.2708 78.2819 34.5272 78.2819 34.7962C78.2756 35.7742 78.2788 36.7554 78.2788 37.7334C78.2788 37.7967 78.2788 37.86 78.2788 37.9233C78.2788 38.0879 78.1872 38.1449 78.0356 38.1417C77.8683 38.1385 77.6978 38.1449 77.5304 38.1417C77.3094 38.1354 77.2715 38.1005 77.2684 37.8822C77.2621 37.5467 77.2652 37.208 77.2652 36.8725C77.2652 36.2616 77.2652 35.6508 77.2652 35.0399C77.2652 34.8057 77.2084 34.5873 77.12 34.3689C76.9179 33.8752 76.5232 33.6885 76.0274 33.6568C75.538 33.6252 75.0897 33.7264 74.7234 34.0841C74.4392 34.3626 74.3003 34.7044 74.3003 35.1001C74.2971 35.9736 74.3003 36.8472 74.2971 37.7207C74.2971 38.0879 74.2434 38.1385 73.8772 38.1417C73.7287 38.1417 73.5835 38.1417 73.4351 38.1385C73.293 38.1354 73.2235 38.0626 73.2235 37.9201C73.2235 37.8663 73.2235 37.8157 73.2235 37.7619C73.2235 36.2142 73.2235 34.6665 73.2235 33.1187C73.2235 33.0649 73.2267 33.0143 73.2235 32.9605C73.2172 32.8339 73.2678 32.7611 73.4067 32.7643C73.6277 32.7674 73.8487 32.7674 74.0698 32.7643C74.1898 32.7643 74.2371 32.8276 74.2371 32.9415C74.234 33.0776 74.2371 33.2105 74.2371 33.3846Z" fill="#3649B8"/>
<path d="M147.271 33.3781C147.552 33.2135 147.761 33.0236 148.026 32.9192C148.755 32.6311 149.475 32.6248 150.195 32.9382C150.779 33.1914 151.098 33.6693 151.247 34.2706C151.307 34.5144 151.319 34.7676 151.316 35.0208C151.31 35.9165 151.313 36.8122 151.313 37.7047C151.313 37.7902 151.316 37.8725 151.31 37.9579C151.303 38.0687 151.237 38.1352 151.127 38.1383C150.915 38.1447 150.707 38.1415 150.495 38.1383C150.369 38.1352 150.306 38.0624 150.299 37.9389C150.296 37.8661 150.296 37.7902 150.296 37.7174C150.296 36.866 150.29 36.0114 150.299 35.16C150.303 34.891 150.239 34.6378 150.154 34.3909C149.987 33.9003 149.595 33.7009 149.115 33.6598C148.888 33.6408 148.661 33.6693 148.43 33.7073C147.83 33.8022 147.315 34.4637 147.331 35.0967C147.35 35.8975 147.334 36.6982 147.334 37.4958C147.334 37.5591 147.338 37.6224 147.334 37.6857C147.319 38.075 147.252 38.1415 146.867 38.1415C146.731 38.1415 146.592 38.1415 146.457 38.1383C146.33 38.1352 146.267 38.0655 146.261 37.9389C146.258 37.8756 146.258 37.8123 146.258 37.749C146.258 36.2013 146.258 34.6536 146.258 33.1059C146.258 33.0426 146.261 32.9793 146.261 32.916C146.261 32.8305 146.302 32.7736 146.39 32.7704C146.621 32.7672 146.854 32.7641 147.085 32.7704C147.214 32.7736 147.268 32.8559 147.268 32.9793C147.271 33.1027 147.271 33.223 147.271 33.3781Z" fill="#3649B8"/>
<path d="M155.591 38.1421C154.884 38.2022 154.237 37.9205 153.684 37.4363C153.22 37.028 152.949 36.4836 152.898 35.8664C152.867 35.474 152.854 35.072 152.945 34.6732C153.173 33.7015 154.104 32.9039 155.099 32.7583C155.554 32.6919 155.989 32.7045 156.435 32.8153C156.978 32.9482 157.404 33.2363 157.745 33.6762C157.836 33.7965 157.818 33.8883 157.71 33.9737C157.638 34.0339 157.559 34.0877 157.477 34.1351C157.35 34.2048 157.243 34.3504 157.094 34.3345C156.952 34.3219 156.908 34.151 156.804 34.0623C156.517 33.8155 156.195 33.6572 155.809 33.6509C155.503 33.6477 155.203 33.6477 154.913 33.7743C154.297 34.0465 153.975 34.5371 153.905 35.1891C153.855 35.6797 153.95 36.1481 154.243 36.5659C154.568 37.0343 155.317 37.3382 155.879 37.2369C156.286 37.1641 156.63 36.9932 156.905 36.6798C157.088 36.4709 157.098 36.4836 157.341 36.6387C157.445 36.7083 157.559 36.7653 157.663 36.8349C157.83 36.9489 157.84 37.0248 157.717 37.1926C157.246 37.8256 156.621 38.1484 155.831 38.1389C155.768 38.1421 155.705 38.1421 155.591 38.1421Z" fill="#3649B8"/>
<path d="M66.7253 35.8721C66.7253 36.5146 66.7253 37.1571 66.7253 37.7964C66.7253 38.1161 66.7032 38.1351 66.3843 38.1383C66.2675 38.1383 66.1538 38.1414 66.037 38.1383C65.7623 38.1256 65.7117 38.0781 65.7117 37.7964C65.7086 36.6918 65.7117 35.5872 65.7117 34.4826C65.7117 34.2832 65.7149 34.0838 65.7117 33.8813C65.7054 33.6629 65.6991 33.6597 65.4718 33.6502C65.336 33.647 65.1971 33.647 65.0613 33.6502C64.9066 33.6534 64.8276 33.5806 64.8276 33.4223C64.8276 33.2641 64.8308 33.1058 64.8276 32.9476C64.8245 32.8115 64.8908 32.7608 65.0202 32.7608C65.1876 32.764 65.3581 32.7577 65.5254 32.7608C65.6581 32.764 65.7149 32.707 65.7149 32.5709C65.7149 32.3304 65.7244 32.093 65.7717 31.8525C65.9107 31.1466 66.5201 30.6149 67.2305 30.6117C67.4421 30.6086 67.6505 30.6086 67.862 30.6117C68.0799 30.6181 68.2662 30.713 68.4525 30.8143C68.5093 30.846 68.5567 30.8966 68.5535 30.9631C68.5504 31.2131 68.4335 31.4252 68.3136 31.6309C68.2757 31.6974 68.2062 31.6625 68.1494 31.6246C68.0357 31.5454 67.8999 31.5233 67.7673 31.4916C67.1895 31.3587 66.7506 31.672 66.7348 32.2576C66.719 32.8526 66.6874 32.7513 67.2021 32.7608C67.4863 32.764 67.7705 32.764 68.0546 32.7608C68.1841 32.7608 68.2504 32.8083 68.2472 32.9444C68.2441 33.0932 68.2504 33.2387 68.2472 33.3875C68.2378 33.6059 68.203 33.6407 67.982 33.647C67.6663 33.6534 67.3505 33.647 67.0347 33.6502C66.7348 33.6534 66.7316 33.6534 66.7316 33.9446C66.7253 34.5902 66.7253 35.2296 66.7253 35.8721Z" fill="#3649B8"/>
<path d="M115.838 35.8917C115.838 36.5247 115.838 37.1545 115.838 37.7875C115.838 38.0787 115.835 38.0787 115.535 38.0819C115.355 38.085 115.178 38.0819 114.998 38.0819C114.881 38.0819 114.824 38.0281 114.824 37.911C114.824 37.8382 114.824 37.7622 114.824 37.6894C114.824 36.4772 114.824 35.2681 114.824 34.0559C114.824 33.9926 114.818 33.9293 114.824 33.866C114.84 33.6951 114.749 33.6476 114.597 33.654C114.449 33.6603 114.303 33.654 114.155 33.654C114.013 33.654 113.956 33.578 113.94 33.4387C113.871 32.7994 113.887 32.7804 114.534 32.7677C114.821 32.7646 114.821 32.7646 114.828 32.4639C114.831 32.2234 114.824 31.9828 114.888 31.7454C115.067 31.0776 115.727 30.6187 116.324 30.6187C116.7 30.6187 117.079 30.5775 117.429 30.7801C117.701 30.9352 117.714 30.9352 117.597 31.2105C117.53 31.3625 117.524 31.5745 117.376 31.6505C117.234 31.7233 117.098 31.546 116.949 31.5049C116.817 31.4669 116.684 31.4258 116.548 31.4479C116.169 31.5049 115.844 31.66 115.844 32.217C115.841 32.8659 115.762 32.7614 116.39 32.7709C116.643 32.7741 116.896 32.7772 117.148 32.7709C117.29 32.7677 117.363 32.8184 117.36 32.9703C117.354 33.1191 117.363 33.2647 117.357 33.4134C117.347 33.6096 117.309 33.6508 117.11 33.6571C116.795 33.6635 116.479 33.6571 116.163 33.6603C115.847 33.6603 115.844 33.6635 115.844 33.9705C115.835 34.6066 115.838 35.2491 115.838 35.8917Z" fill="#3649B8"/>
<path d="M84.5276 35.2548C84.5276 35.6852 84.5244 36.1189 84.5276 36.5493C84.5308 36.9798 84.8086 37.2456 85.2412 37.2551C85.4528 37.2583 85.6549 37.2425 85.8475 37.1348C86.0369 37.0272 86.0843 37.0494 86.1537 37.2393C86.1948 37.3596 86.2453 37.4735 86.3053 37.5843C86.3779 37.7204 86.3621 37.8185 86.2169 37.8945C85.9453 38.0369 85.6738 38.1603 85.3517 38.1413C85.0391 38.1223 84.7265 38.1635 84.4234 38.0274C83.915 37.7995 83.5993 37.4355 83.514 36.8785C83.3909 36.0745 83.4825 35.2643 83.454 34.4572C83.4477 34.2578 83.4477 34.0584 83.454 33.859C83.4572 33.7134 83.4035 33.6438 83.252 33.6501C83.1036 33.6564 82.9583 33.6564 82.8099 33.6501C82.6141 33.6406 82.5794 33.6026 82.5699 33.4001C82.5636 33.2735 82.5636 33.1469 82.5699 33.0203C82.5794 32.805 82.6141 32.7734 82.8383 32.7639C82.9741 32.7576 83.113 32.7576 83.2488 32.7639C83.394 32.7702 83.4604 32.7101 83.454 32.5613C83.4477 32.3524 83.4509 32.1404 83.454 31.9315C83.4604 31.6593 83.4888 31.6308 83.7698 31.6276C83.9498 31.6245 84.1266 31.634 84.3066 31.6245C84.4645 31.6181 84.5371 31.6783 84.5308 31.8429C84.5213 32.0423 84.5276 32.2417 84.5308 32.4411C84.5339 32.7576 84.5339 32.7607 84.837 32.7607C85.1402 32.7639 85.4464 32.7576 85.7496 32.7639C86.0085 32.7671 86.0401 32.7987 86.0401 33.0582C86.0432 33.7039 86.0843 33.6501 85.478 33.6501C85.257 33.6501 85.036 33.6469 84.8149 33.6501C84.5308 33.6533 84.5276 33.6533 84.5276 33.9571C84.5244 34.3939 84.5276 34.8243 84.5276 35.2548Z" fill="#3649B8"/>
<path d="M111.291 33.4796C111.547 33.2359 111.762 33.0713 112.005 32.9447C112.311 32.7833 112.649 32.7738 112.974 32.7105C113.113 32.6852 113.192 32.7485 113.186 32.9036C113.179 33.103 113.176 33.3024 113.186 33.5049C113.192 33.6727 113.119 33.7328 112.961 33.7233C112.661 33.7043 112.38 33.774 112.112 33.9069C111.803 34.062 111.594 34.2962 111.484 34.619C111.398 34.8691 111.345 35.1223 111.348 35.3881C111.357 36.1889 111.351 36.9897 111.351 37.7872C111.351 38.1227 111.332 38.1386 110.991 38.1417C110.865 38.1417 110.738 38.1449 110.612 38.1417C110.356 38.1322 110.287 38.0563 110.277 37.7936C110.277 37.7524 110.277 37.7081 110.277 37.667C110.277 36.1731 110.277 34.676 110.277 33.1821C110.277 33.1093 110.277 33.0333 110.281 32.9605C110.287 32.8339 110.36 32.7706 110.483 32.7675C110.694 32.7643 110.903 32.7675 111.114 32.7643C111.256 32.7611 111.294 32.8403 111.291 32.9669C111.288 33.1125 111.291 33.2581 111.291 33.4796Z" fill="#3649B8"/>
<path d="M125.939 33.5149C126.179 33.3504 126.318 33.1478 126.523 33.0212C126.877 32.806 127.268 32.7585 127.663 32.7047C127.818 32.6857 127.897 32.7743 127.893 32.9326C127.89 33.113 127.9 33.2902 127.89 33.4706C127.881 33.67 127.843 33.7048 127.644 33.7143C127.467 33.7238 127.293 33.7207 127.114 33.7681C126.716 33.8726 126.413 34.0847 126.226 34.4581C126.084 34.743 125.996 35.0437 125.996 35.3665C125.996 36.1673 125.996 36.968 125.996 37.7688C125.996 38.0568 125.993 38.0536 125.718 38.1201C125.604 38.1486 125.487 38.1423 125.374 38.1391C125.026 38.1264 124.982 38.079 124.982 37.7276C124.982 36.1894 124.982 34.6512 124.982 33.1161C124.982 33.0623 124.985 33.0117 124.982 32.9579C124.976 32.8281 125.033 32.7617 125.168 32.7648C125.358 32.768 125.547 32.7712 125.737 32.7648C125.892 32.7617 125.939 32.8345 125.936 32.9769C125.933 33.1415 125.939 33.306 125.939 33.5149Z" fill="#3649B8"/>
<path d="M71.2059 35.4515C71.2059 36.2207 71.2059 36.9898 71.2059 37.7557C71.2059 38.0627 71.2027 38.0596 70.9091 38.126C70.6849 38.1735 70.4702 38.1197 70.2586 38.0659C70.1797 38.0469 70.1418 37.9804 70.1355 37.9013C70.1323 37.8285 70.1323 37.7525 70.1323 37.6797C70.1323 36.1732 70.1323 34.6698 70.1323 33.1632C70.1323 33.1094 70.1323 33.0588 70.1323 33.005C70.1292 32.853 70.1955 32.7676 70.3565 32.7676C70.587 32.7676 70.8175 32.7676 71.0512 32.7676C71.1554 32.7676 71.2059 32.8214 71.2059 32.9227C71.2059 32.9955 71.209 33.0714 71.209 33.1442C71.2059 33.9133 71.2059 34.6824 71.2059 35.4515Z" fill="#3649B8"/>
<path d="M56.4981 35.4233C56.4981 36.1797 56.4981 36.9394 56.4981 37.6958C56.4981 37.7813 56.4981 37.8636 56.4949 37.949C56.4918 38.0218 56.4507 38.0725 56.3781 38.0725C56.1255 38.0756 55.8729 38.0756 55.6203 38.0725C55.5319 38.0725 55.4908 38.0155 55.4877 37.93C55.4845 37.8667 55.4845 37.8034 55.4845 37.7401C55.4845 36.1924 55.4845 34.6447 55.4845 33.1001C55.4845 33.0368 55.4845 32.9735 55.4877 32.9102C55.4908 32.8248 55.5319 32.771 55.6203 32.7678C55.8634 32.7647 56.1034 32.7646 56.3465 32.7646C56.4539 32.7646 56.4949 32.8248 56.4949 32.9261C56.4949 32.9989 56.4981 33.0748 56.4981 33.1476C56.4981 33.9104 56.4981 34.6668 56.4981 35.4233Z" fill="#3649B8"/>
<path d="M80.2933 35.4103C80.2933 34.6317 80.2933 33.8531 80.2933 33.0745C80.2933 32.7738 80.2965 32.7707 80.5838 32.7675C80.7638 32.7644 80.9406 32.7707 81.1206 32.7675C81.2564 32.7644 81.3101 32.8308 81.3069 32.9606C81.3037 33.0239 81.3069 33.0872 81.3069 33.1505C81.3069 34.6665 81.3069 36.1826 81.3069 37.6955C81.3069 37.7588 81.3037 37.8221 81.3069 37.8854C81.3164 38.0405 81.2343 38.0848 81.0922 38.0816C80.8933 38.0753 80.6912 38.0753 80.4922 38.0816C80.3407 38.0848 80.287 38.0183 80.2902 37.8728C80.2933 37.5151 80.2902 37.1574 80.2902 36.7998C80.2933 36.3345 80.2933 35.8724 80.2933 35.4103Z" fill="#3649B8"/>
<path d="M87.3189 2.91787C86.839 2.9147 86.4664 2.81342 86.1506 2.50008C85.6991 2.04748 85.857 0.895394 86.6211 0.680171C87.0631 0.556733 87.4957 0.528248 87.9125 0.677005C88.3798 0.841588 88.6924 1.23089 88.6893 1.81326C88.6861 2.29118 88.2409 2.73429 87.8494 2.84507C87.6599 2.89888 87.4642 2.94002 87.3189 2.91787Z" fill="#3649B8"/>
<path d="M99.0208 14.7331C99.245 14.7109 99.5102 14.7426 99.7629 14.8723C100.186 15.0875 100.439 15.6224 100.35 16.0877C100.265 16.5403 99.9902 16.8062 99.5734 16.9486C99.1534 17.091 98.7335 17.0847 98.323 16.9296C97.5905 16.6543 97.4231 15.9358 97.701 15.3566C97.881 14.9768 98.2251 14.7679 98.6546 14.7362C98.7587 14.7267 98.863 14.7331 99.0208 14.7331Z" fill="#3649B8"/>
<path d="M55.9897 31.8215C55.6013 31.8215 55.2982 31.5272 55.2982 31.1568C55.2982 30.7929 55.614 30.4922 55.996 30.4922C56.3781 30.4954 56.6907 30.796 56.6875 31.1632C56.6844 31.5335 56.3781 31.8215 55.9897 31.8215Z" fill="#3649B8"/>
<path d="M70.6501 31.8215C70.2491 31.8184 70.0029 31.5715 70.006 31.179C70.0092 30.7929 70.3154 30.489 70.707 30.4922C71.0543 30.4954 71.4111 30.8467 71.3953 31.1727C71.3795 31.5398 71.0512 31.8247 70.6501 31.8215Z" fill="#3649B8"/>
<path d="M80.7954 31.8216C80.4323 31.8184 80.1071 31.5209 80.1071 31.1886C80.1071 30.8088 80.4323 30.4859 80.8112 30.4923C81.149 30.4986 81.5122 30.8309 81.4838 31.1538C81.4522 31.5114 81.2059 31.8596 80.7954 31.8216Z" fill="#3649B8"/>
<path d="M0.0568625 8.44099C-0.0220762 7.87128 -0.0126036 7.30157 0.0568625 6.73185C0.0600201 6.66539 0.0600201 6.59892 0.0631776 6.53562C0.120014 6.48498 0.123171 6.42168 0.0947532 6.35521C0.123171 6.31407 0.135801 6.26976 0.126329 6.22228C0.268418 5.80449 0.413666 5.38354 0.555756 4.96575C0.628379 4.85498 0.697845 4.74103 0.729421 4.6081C0.786257 4.57645 0.817832 4.52581 0.82099 4.45934C1.06412 4.08587 1.32936 3.73138 1.60406 3.38322C1.80615 3.24713 1.97034 3.07621 2.11559 2.88314C2.27346 2.78186 2.41871 2.67109 2.55133 2.53815C2.61764 2.53499 2.65868 2.50017 2.68394 2.44004C2.77867 2.40522 2.86077 2.35458 2.93023 2.28178C2.99654 2.28178 3.04075 2.25013 3.07232 2.19C3.36282 2.05073 3.65016 1.91464 3.94065 1.77537C4.27535 1.67409 4.61005 1.57281 4.94791 1.47153C4.99211 1.4652 5.03316 1.4557 5.07737 1.44937C5.16578 1.47153 5.24788 1.4557 5.32366 1.40506C5.36786 1.39873 5.41207 1.39557 5.45627 1.38924C5.64573 1.39873 5.83518 1.39873 6.01832 1.34176C6.14778 1.36392 6.28039 1.36392 6.40985 1.34176C6.59299 1.39557 6.78244 1.40506 6.9719 1.38291C7.03505 1.41456 7.0982 1.42089 7.16451 1.40823C7.24029 1.46203 7.32554 1.47153 7.41396 1.4557C7.45816 1.46203 7.49921 1.46836 7.54341 1.47786C7.57815 1.51267 7.6192 1.5285 7.66656 1.50634C7.70445 1.53483 7.74866 1.54433 7.79602 1.538C7.83075 1.57281 7.8718 1.58864 7.91916 1.56965C7.95705 1.6013 8.00126 1.61079 8.04547 1.60446C8.13703 1.67409 8.24439 1.70258 8.35806 1.71207C8.40227 1.74372 8.44963 1.75955 8.50647 1.75638C8.54752 1.81336 8.60435 1.83868 8.67382 1.83551C9.0843 2.03174 9.47899 2.25963 9.86421 2.50017C9.88947 2.56031 9.93368 2.59512 9.99999 2.60145C10.4389 2.9781 10.8525 3.38006 11.2188 3.82317C11.2251 3.88963 11.2599 3.93394 11.3198 3.95926C11.5219 4.31375 11.724 4.66824 11.9261 5.02272C12.0461 5.35822 12.1661 5.69372 12.2829 6.02921C12.2766 6.07669 12.2829 6.121 12.3145 6.15898C12.2892 6.22861 12.305 6.28875 12.3555 6.34255C12.346 6.39003 12.3524 6.43434 12.3808 6.47549C12.3524 6.56411 12.365 6.6464 12.4187 6.72236C12.406 6.76984 12.4124 6.81415 12.4376 6.85529C12.425 7.12749 12.4187 7.39968 12.485 7.66871C12.4597 7.82063 12.4566 7.97256 12.5071 8.11815C12.4724 8.24792 12.4787 8.37136 12.5481 8.48846C12.5355 8.53594 12.5418 8.58025 12.5702 8.62139C12.5923 9.03602 12.6934 9.42848 12.8923 9.79247C12.8891 9.8526 12.9081 9.90641 12.9523 9.94755C12.9334 10.0172 12.9649 10.0647 13.0218 10.1026C13.0628 10.2799 13.1512 10.4318 13.2491 10.5774C13.2491 10.6439 13.2807 10.6945 13.3407 10.7262C13.347 10.7958 13.3849 10.8496 13.4354 10.8939C13.4386 10.9604 13.4701 11.0078 13.5333 11.0363C13.5333 11.0585 13.5428 11.0743 13.5617 11.0838C13.568 11.1503 13.6028 11.1946 13.6627 11.2231C13.6691 11.2737 13.6975 11.3117 13.7448 11.3338C13.7512 11.4035 13.7922 11.4478 13.8522 11.4731C13.8964 11.5712 13.9627 11.6567 14.0574 11.7137C14.0701 11.7801 14.108 11.8244 14.1743 11.8403C14.2153 11.9257 14.2785 11.989 14.3637 12.0333C14.4174 12.1473 14.4963 12.2327 14.6226 12.2707C15.1405 12.7708 15.7436 13.1316 16.4256 13.369C16.5835 13.4861 16.7603 13.5431 16.9561 13.5557C16.994 13.5874 17.0382 13.6 17.0887 13.5937C17.1203 13.6348 17.1613 13.6475 17.2118 13.6254C17.2497 13.6538 17.2939 13.6633 17.3444 13.657C17.376 13.7013 17.4171 13.7076 17.4644 13.6855C17.5055 13.714 17.5529 13.7235 17.6002 13.7108C17.6918 13.7868 17.796 13.7868 17.9065 13.7583C17.9475 13.7836 17.9949 13.7899 18.0423 13.7773C18.478 13.8754 18.9138 13.8754 19.3495 13.7804C19.419 13.7963 19.4853 13.7931 19.5453 13.7551C19.6337 13.7836 19.7189 13.7836 19.7916 13.7171C19.861 13.7298 19.9273 13.7203 19.9873 13.6792C20.0347 13.7045 20.0757 13.6981 20.1073 13.6538C20.1547 13.6602 20.1989 13.6507 20.2399 13.6222C20.2873 13.6443 20.3283 13.6348 20.3599 13.5937C20.4104 13.6 20.4546 13.5842 20.4925 13.5526C20.6251 13.5652 20.7388 13.5241 20.8367 13.4323C21.2851 13.3057 21.6924 13.1 22.0713 12.8309C22.1376 12.8278 22.185 12.7898 22.2134 12.7328C22.2355 12.7328 22.2513 12.7265 22.2608 12.7075C22.3271 12.7012 22.3713 12.6663 22.3965 12.6062C22.4471 12.5999 22.4849 12.5714 22.5102 12.5239C22.5765 12.5144 22.6207 12.4764 22.6428 12.4131C23.1922 12.008 23.6311 11.5016 23.9721 10.9097C24.029 10.8781 24.07 10.8369 24.0669 10.7641C24.1427 10.6787 24.2027 10.5837 24.2248 10.4666C24.2816 10.435 24.3132 10.3875 24.3037 10.321C24.3668 10.2387 24.4142 10.1501 24.4205 10.0457C24.4774 10.0045 24.5089 9.95072 24.5026 9.87792C24.5342 9.83361 24.5531 9.78297 24.5468 9.72916C24.6384 9.62788 24.6794 9.50761 24.67 9.37468C24.7047 9.3367 24.7142 9.29555 24.711 9.24491C24.7868 9.13097 24.8184 9.00437 24.7994 8.86827C24.831 8.83029 24.8373 8.78598 24.831 8.73534C24.8815 8.65938 24.8973 8.57708 24.8657 8.48846C24.9036 8.42833 24.9099 8.36186 24.8942 8.29539C24.9573 8.13081 24.9699 7.96623 24.9257 7.79531C24.9763 7.60541 24.9668 7.41234 24.9478 7.21927C25.0078 7.08001 25.0078 6.93125 24.9826 6.78566C25.0205 6.72552 25.0299 6.65906 25.0173 6.58943C25.0678 6.53562 25.0741 6.47232 25.0457 6.40585C25.0741 6.36471 25.0836 6.3204 25.0741 6.27292C25.1215 6.24127 25.131 6.20329 25.0994 6.15581C25.1026 6.12416 25.1089 6.09251 25.112 6.06086C25.2289 5.87729 25.2762 5.6684 25.3046 5.45634C25.3488 5.41203 25.3646 5.35822 25.3646 5.29492C25.4151 5.25694 25.4499 5.20946 25.4309 5.13983C25.4751 5.09869 25.4941 5.04804 25.4941 4.98791C25.5509 4.94676 25.5857 4.89612 25.5793 4.82333C25.6741 4.69356 25.753 4.5543 25.8035 4.39921C25.8604 4.36756 25.8983 4.32325 25.8983 4.25361C25.9172 4.24095 25.9267 4.22513 25.9267 4.20297C25.9867 4.17765 26.0214 4.13018 26.0214 4.06371C26.0403 4.05105 26.053 4.03523 26.053 4.01307C26.113 3.98775 26.1477 3.94027 26.1572 3.87697C26.1951 3.84532 26.2298 3.81051 26.2424 3.7567C26.3024 3.73138 26.3403 3.69023 26.3529 3.62377C26.6498 3.32625 26.9497 3.02874 27.2465 2.72806C27.316 2.71856 27.3602 2.68058 27.3855 2.61728C27.8244 2.3166 28.2822 2.04757 28.7622 1.81652C28.8316 1.82285 28.8853 1.79753 28.9263 1.74056C28.9832 1.74372 29.0337 1.7279 29.0779 1.69625C29.1916 1.68992 29.2989 1.65827 29.3905 1.58864C29.4379 1.59497 29.4821 1.58547 29.52 1.55066C29.5673 1.56965 29.6084 1.55382 29.6431 1.51901C29.6905 1.52534 29.7347 1.51584 29.7726 1.48735C29.8199 1.50951 29.861 1.49368 29.8957 1.45887C29.9399 1.45254 29.981 1.44621 30.0252 1.43988C30.1136 1.4557 30.1957 1.44304 30.2715 1.3924C30.3378 1.40506 30.4041 1.4019 30.4672 1.36708C30.6377 1.3924 30.8019 1.38291 30.9661 1.3291C31.1177 1.35126 31.2692 1.35126 31.4208 1.3291C31.585 1.38291 31.7524 1.3924 31.9197 1.36708C31.9797 1.39873 32.046 1.40506 32.1123 1.3924C32.1881 1.44304 32.2734 1.4557 32.3618 1.43671C32.406 1.44304 32.447 1.45254 32.4912 1.45887C32.6081 1.5285 32.7344 1.55066 32.867 1.54749C32.9049 1.57914 32.9491 1.5918 32.9964 1.58547C33.088 1.6551 33.1954 1.68359 33.309 1.69308C33.3532 1.7279 33.4038 1.74056 33.4606 1.73739C33.5016 1.79437 33.5553 1.81969 33.6248 1.81019C33.9342 1.97161 34.2468 2.13619 34.5563 2.29761C34.5847 2.35775 34.632 2.3894 34.6984 2.39256C35.1846 2.75654 35.6267 3.168 36.0372 3.61427C36.0466 3.6839 36.0845 3.72822 36.1445 3.75354C36.1571 3.80418 36.1887 3.84216 36.2329 3.87064C36.2361 3.93711 36.274 3.98142 36.334 4.00991C36.334 4.03206 36.3434 4.05105 36.3655 4.06055C36.3655 4.12701 36.4034 4.17132 36.4603 4.19981C36.4603 4.22196 36.4697 4.24095 36.4887 4.25045C36.4887 4.32008 36.5266 4.36439 36.5834 4.39921C36.7066 4.64608 36.8329 4.88979 36.956 5.13667C36.9402 5.2063 36.9686 5.25377 37.0223 5.29175C37.0223 5.35189 37.0349 5.40886 37.0791 5.45317C37.0791 5.5861 37.117 5.70954 37.2054 5.81082C37.1991 5.90894 37.2149 6.00073 37.2686 6.08618C37.2465 6.13366 37.2623 6.1748 37.2939 6.20962C37.3033 6.25393 37.3128 6.29508 37.3191 6.33939C37.297 6.42801 37.316 6.5103 37.3633 6.58626C37.3696 6.63057 37.376 6.67488 37.3823 6.71603C37.3602 6.8458 37.3791 6.96923 37.4233 7.09267C37.4233 7.41234 37.4233 7.73201 37.4233 8.05168C37.3759 8.19411 37.357 8.3397 37.3759 8.49163C37.3696 8.53594 37.3633 8.57708 37.357 8.62139C37.316 8.67837 37.297 8.7385 37.3254 8.80813C37.297 8.84611 37.2907 8.89042 37.297 8.9379C37.196 9.25124 37.0823 9.56142 37.0128 9.88425C36.9686 9.9254 36.9528 9.9792 36.956 10.0393C36.8234 10.1976 36.7413 10.3812 36.6876 10.5806C36.5266 10.8306 36.3687 11.0806 36.2077 11.3307C36.1445 11.356 36.1066 11.4003 36.1003 11.4699C35.8856 11.7042 35.6709 11.9384 35.4562 12.1694C35.3899 12.1821 35.3456 12.2201 35.3267 12.2865C34.992 12.5271 34.6541 12.7676 34.3194 13.0082C34.2531 13.0113 34.2026 13.043 34.1679 13.1C34.0384 13.1316 33.9279 13.2012 33.8142 13.2677C33.5553 13.35 33.3027 13.4418 33.0596 13.5652C33.0122 13.562 32.968 13.5715 32.9301 13.6032C32.7975 13.6 32.6712 13.619 32.5575 13.6981C32.5102 13.6887 32.466 13.6981 32.4249 13.7266C32.3586 13.7013 32.2955 13.7045 32.2418 13.7614C32.1723 13.7488 32.106 13.7551 32.046 13.7931C31.9197 13.7678 31.7934 13.7614 31.6766 13.8311C31.3356 13.8406 30.9977 13.8501 30.6567 13.8596C30.4262 13.8247 30.1957 13.8121 29.9715 13.8912C29.8389 13.8627 29.7126 13.8881 29.5863 13.9197C29.46 13.8912 29.3337 13.8817 29.2137 13.9514C29.1 13.9292 28.9958 13.9608 28.8885 13.9893C28.8032 13.9545 28.7243 13.9608 28.658 14.0336C28.5853 14.0083 28.5159 14.0241 28.4464 14.0495C28.3611 14.0178 28.2822 14.0273 28.2159 14.1001C28.0359 14.0938 27.8559 14.1064 27.6886 14.1792C27.6444 14.1602 27.6033 14.1634 27.5686 14.1982C27.2434 14.2394 26.9245 14.3027 26.6182 14.4166C26.5708 14.3945 26.5298 14.4103 26.495 14.4451C26.4477 14.4388 26.4035 14.4483 26.3656 14.4831C26.3182 14.4641 26.2772 14.4799 26.2424 14.5116C26.1951 14.5084 26.1509 14.5179 26.113 14.5527C25.8667 14.5717 25.6393 14.654 25.4215 14.7616C25.3741 14.7584 25.3299 14.7679 25.292 14.8028C25.2225 14.7838 25.1689 14.8091 25.1278 14.8629C25.071 14.8566 25.0236 14.8755 24.9762 14.904C24.7836 14.942 24.5942 14.9927 24.4363 15.1161C24.3763 15.1098 24.3258 15.1288 24.2816 15.1699C24.209 15.1541 24.1616 15.1889 24.1206 15.2427C24.0606 15.2395 24.01 15.2585 23.9658 15.2997C23.8458 15.2933 23.7574 15.3503 23.6785 15.4326C23.6185 15.4326 23.5648 15.4484 23.5238 15.4927C23.4069 15.4864 23.3217 15.5434 23.2459 15.6225C23.0312 15.689 22.8323 15.7966 22.6397 15.9137C22.5291 15.9295 22.4344 15.977 22.3618 16.0656C22.2071 16.1099 22.0745 16.1954 21.945 16.2903C21.8755 16.2903 21.8282 16.3251 21.7966 16.3821C21.7271 16.3884 21.6766 16.4264 21.6292 16.4771C21.5598 16.4771 21.5124 16.515 21.4777 16.572C21.4082 16.5815 21.3577 16.6195 21.3135 16.6701C21.244 16.6701 21.1998 16.705 21.1682 16.7651C20.5936 17.1006 20.0505 17.4836 19.5484 17.9235C19.479 17.933 19.4379 17.971 19.4126 18.0343C19.3116 18.0786 19.2264 18.1419 19.1695 18.2368C19.1 18.2495 19.059 18.2875 19.0337 18.3508C18.9106 18.4172 18.8096 18.509 18.7275 18.6198C18.6327 18.6451 18.5696 18.7053 18.5348 18.7971C18.1623 19.0977 17.8276 19.4332 17.5213 19.8035C17.4108 19.8605 17.3223 19.9428 17.2813 20.0662C17.1645 20.1422 17.0824 20.2498 17.0129 20.3701C16.9498 20.3954 16.9087 20.4397 16.8961 20.5062C16.7161 20.6676 16.5677 20.8543 16.4414 21.0632C16.3814 21.0886 16.3435 21.1329 16.334 21.2025C16.2204 21.3069 16.1288 21.4304 16.0625 21.5696C16.0025 21.595 15.9646 21.6393 15.9614 21.7089C15.7088 22.0191 15.4815 22.3451 15.3047 22.7027C15.2447 22.7312 15.2131 22.7787 15.2099 22.8483C15.0963 23.0003 14.9858 23.1553 14.9289 23.3389C14.8689 23.3674 14.8405 23.4149 14.8468 23.4813C14.6037 23.8706 14.3827 24.2758 14.228 24.7094C13.9059 25.2538 13.6943 25.8456 13.5143 26.4502C13.4701 26.5293 13.4291 26.6116 13.4322 26.7065C13.3944 26.7414 13.3786 26.7793 13.3912 26.83C13.347 26.8933 13.328 26.9629 13.3407 27.0389C13.1923 27.2857 13.126 27.5548 13.1007 27.8396C13.0691 27.8776 13.0565 27.9251 13.0628 27.9726C13.0218 28.0042 13.0123 28.0454 13.0376 28.0928C13.0091 28.134 12.9965 28.1783 13.0028 28.2258C12.927 28.3619 12.886 28.5043 12.9081 28.6594C12.8797 28.7005 12.8702 28.7448 12.8765 28.7923C12.8197 28.8429 12.8165 28.9062 12.8418 28.9759C12.8134 29.017 12.8039 29.0613 12.8134 29.112C12.7565 29.1626 12.7534 29.2259 12.7818 29.2924C12.7439 29.3525 12.7344 29.419 12.7471 29.4886C12.6807 29.5614 12.6807 29.6469 12.706 29.7355C12.6807 29.7766 12.6744 29.8241 12.6871 29.8716C12.6176 29.9665 12.6208 30.071 12.646 30.1786C12.6113 30.2419 12.605 30.3084 12.6208 30.3748C12.5513 30.4919 12.5513 30.6185 12.5797 30.7451C12.5418 30.8274 12.5355 30.9161 12.5544 31.0047C12.485 31.1883 12.485 31.375 12.5197 31.5649C12.4629 31.8181 12.4692 32.0745 12.4913 32.3308C12.4281 32.641 12.4376 32.9575 12.4502 33.2709C12.4155 33.3342 12.4092 33.3975 12.425 33.4671C12.3682 33.5431 12.3587 33.6253 12.3808 33.714C12.3555 33.7551 12.3492 33.7994 12.3587 33.8437C12.2418 34.2204 12.125 34.6002 12.0082 34.9768C11.885 35.2237 11.7651 35.4706 11.6419 35.7175C11.5819 35.7459 11.5503 35.7934 11.5503 35.8599C11.4777 35.9295 11.4272 36.0118 11.3925 36.1068C11.3325 36.1321 11.2977 36.1732 11.2946 36.2397C11.143 36.3948 11.0136 36.5689 10.8873 36.7429C10.7988 36.7809 10.7357 36.841 10.7041 36.936C10.5147 37.1101 10.3252 37.281 10.1326 37.4551C10.0631 37.4614 10.0189 37.4994 9.99683 37.5627C9.78843 37.6988 9.58004 37.838 9.37164 37.9741C9.30533 37.9773 9.25797 38.0058 9.22639 38.0628C9.05272 38.1166 8.89485 38.2052 8.74013 38.2938C8.67066 38.2906 8.61698 38.316 8.57593 38.3729C8.5191 38.3729 8.46858 38.3856 8.42437 38.4236C8.24755 38.4521 8.0802 38.5027 7.92232 38.5882C7.87496 38.5818 7.83075 38.5913 7.79286 38.623C7.7455 38.6008 7.70445 38.6166 7.66972 38.6515C7.62235 38.6451 7.58131 38.6515 7.54026 38.6768C7.47079 38.6546 7.4108 38.6705 7.35396 38.7148C7.30976 38.7211 7.26555 38.7274 7.2245 38.7338C7.11715 38.7179 7.00979 38.7179 6.91506 38.7812C6.82665 38.7654 6.7414 38.7686 6.65614 38.8002C6.38144 38.7781 6.10673 38.7749 5.83202 38.8034C5.74677 38.7654 5.66151 38.7654 5.5731 38.7812C5.47522 38.7243 5.37102 38.7148 5.26366 38.7401C5.22261 38.7148 5.17841 38.7084 5.13105 38.7148C4.90686 38.6388 4.67952 38.5787 4.4427 38.5565C4.31324 38.4932 4.18378 38.4394 4.03853 38.4299C3.99749 38.3729 3.94381 38.3476 3.87434 38.3539C3.31861 38.1007 2.79446 37.7906 2.30188 37.4297C2.27978 37.3664 2.23557 37.3253 2.16926 37.3158C1.69563 36.8632 1.24726 36.3853 0.909401 35.8187C0.839935 35.7016 0.767311 35.5877 0.697845 35.4737C0.656797 35.3187 0.596804 35.1731 0.483132 35.0528C0.486289 34.9958 0.467344 34.9483 0.432611 34.904C0.378933 34.6635 0.306309 34.4324 0.195795 34.2141C0.20211 34.1666 0.192637 34.1223 0.161062 34.0811C0.186322 34.0336 0.176849 33.9925 0.132644 33.9608C0.142116 33.9134 0.132644 33.8691 0.101068 33.8279C0.123171 33.7393 0.123171 33.657 0.0568625 33.5842C0.0568625 33.5399 0.053705 33.4924 0.053705 33.4481C-0.0189187 32.8562 -0.0220762 32.2675 0.053705 31.6757C0.0568626 31.6092 0.0600201 31.5459 0.0631776 31.4794C0.120014 31.4256 0.123171 31.3655 0.0979107 31.2959C0.126329 31.2547 0.135801 31.2104 0.129486 31.1629C0.170534 31.1313 0.180007 31.0901 0.154747 31.0427C0.186322 31.0047 0.198952 30.9572 0.18948 30.9097C0.233685 30.8781 0.246316 30.8401 0.221055 30.7895C0.290521 30.6597 0.341042 30.5268 0.350515 30.378C0.514707 30.109 0.634694 29.8178 0.751524 29.5234C1.07044 29.0139 1.41145 28.5233 1.84719 28.1023C3.02496 26.9597 4.43323 26.3489 6.06884 26.3109C7.16135 26.2856 8.20334 26.0957 9.16324 25.5608C11.0451 24.51 12.1503 22.9148 12.4124 20.7689C12.8197 17.4392 10.4578 14.271 6.92138 13.8596C6.54563 13.8153 6.16357 13.8311 5.78782 13.7963C3.43544 13.5715 1.71458 12.4068 0.618907 10.3084C0.574701 10.2261 0.530495 10.1406 0.486289 10.0583C0.363145 9.68169 0.243158 9.30505 0.120014 8.92841C0.129486 8.87776 0.116856 8.83345 0.088438 8.79231C0.116856 8.72584 0.113698 8.66571 0.0568625 8.6119C0.0600201 8.57392 0.0568625 8.50745 0.0568625 8.44099ZM31.165 10.7167C32.8859 10.723 34.291 9.33353 34.2973 7.61807C34.3068 5.88362 32.9049 4.47517 31.1745 4.47517C29.4568 4.47517 28.0612 5.87412 28.058 7.59275C28.058 9.31138 29.4473 10.7103 31.165 10.7167ZM3.11337 7.60225C3.11653 9.3272 4.50269 10.7135 6.22356 10.7167C7.95074 10.7198 9.35901 9.30505 9.34638 7.57693C9.33375 5.86146 7.93179 4.472 6.21409 4.47517C4.49954 4.47833 3.11337 5.87729 3.11337 7.60225ZM3.11337 32.5587C3.11021 34.2932 4.48375 35.6858 6.20146 35.6921C7.94127 35.6985 9.35269 34.2995 9.34638 32.5745C9.34006 30.8591 7.93811 29.4475 6.23303 29.4475C4.51848 29.4475 3.11653 30.8433 3.11337 32.5587Z" fill="#3649B8"/>
<path d="M37.4202 29.0959C37.3981 34.7266 32.8512 39.2558 27.2339 39.2336C21.6387 39.2146 17.1203 34.6506 17.1392 29.0389C17.1582 23.44 21.7208 18.9108 27.3223 18.9297C32.9017 18.9487 37.4391 23.5191 37.4202 29.0959ZM20.2715 29.0801C20.2684 32.9636 23.3912 36.097 27.2686 36.1034C31.124 36.1097 34.2847 33.0079 34.2942 29.1022C34.3037 25.1902 31.1714 22.079 27.3097 22.06C23.4133 22.0473 20.2715 25.1839 20.2715 29.0801Z" fill="#3649B8"/>
<path d="M44.6256 37.8193C44.8245 37.8193 44.9824 37.6579 44.9824 37.4616V0.357652C44.9824 0.158253 44.8214 0 44.6256 0C44.4267 0 44.2688 0.161418 44.2688 0.357652V37.4616C44.2688 37.661 44.4298 37.8193 44.6256 37.8193Z" fill="#3649B8"/>
</g>
<defs>
<clipPath id="clip0_688_1425">
<rect width="164" height="40" fill="white"/>
</clipPath>
</defs>
</svg>
