<svg width="109" height="40" viewBox="0 0 109 40" fill="none" xmlns="http://www.w3.org/2000/svg">
<path d="M109 35.8024C107.604 35.8024 106.209 35.8024 104.797 35.8024C104.87 36.4259 105.227 36.8183 105.726 37.0494C106.354 37.3406 107.004 37.3279 107.633 36.9956C107.756 36.9291 107.86 36.85 107.958 36.7519C108.116 36.6 108.119 36.6031 108.283 36.7582C108.315 36.7867 108.343 36.8183 108.372 36.8468C108.732 37.233 108.732 37.3343 108.315 37.6444C107.914 37.9451 107.462 38.1097 106.951 38.1508C106.54 38.1825 106.136 38.173 105.748 38.0685C104.725 37.7932 104.052 37.1444 103.787 36.1062C103.544 35.1504 103.8 34.2958 104.406 33.552C104.741 33.1437 105.208 32.9222 105.719 32.7956C106.528 32.5962 107.279 32.7196 107.961 33.1975C108.489 33.5678 108.836 34.0647 108.934 34.7168C108.943 34.7706 108.95 34.8212 108.997 34.856C109 35.1694 109 35.4859 109 35.8024ZM106.401 35.0427C106.78 35.0427 107.156 35.0491 107.535 35.0396C107.696 35.0364 107.933 35.1219 107.999 34.9826C108.072 34.8307 107.955 34.6218 107.879 34.4509C107.857 34.4034 107.825 34.3623 107.797 34.318C107.544 33.9033 107.159 33.6913 106.698 33.6153C105.934 33.4887 105.018 33.8654 104.816 34.8244C104.775 35.0269 104.775 35.0396 104.987 35.0396C105.457 35.0459 105.931 35.0427 106.401 35.0427Z" fill="#3649B8"/>
<path d="M9.52139 3.07921C9.34456 3.32292 9.30036 3.55713 9.21826 3.76919C8.81725 4.80733 8.46045 5.86129 8.04049 6.88994C7.73737 7.64005 7.47529 8.40283 7.15954 9.14979C6.90693 9.74482 6.70485 10.3652 6.47751 10.9729C6.32594 11.3748 6.17123 11.7736 6.01651 12.1756C5.9944 12.2326 5.96598 12.2959 5.92178 12.337C5.81126 12.4541 5.66286 12.4003 5.59024 12.2231C5.35658 11.6597 5.12292 11.0995 4.88926 10.5392C4.45983 9.51377 4.03356 8.48829 3.60414 7.46281C3.14629 6.37087 2.68213 5.27892 2.22429 4.18381C2.0601 3.78818 1.90222 3.38938 1.74118 2.99058C1.71592 2.92412 1.70329 2.84816 1.61804 2.82284C1.52962 2.86715 1.55804 2.94944 1.55804 3.01591C1.55488 5.49098 1.55173 7.96605 1.5612 10.4411C1.5612 10.7513 1.61804 11.0646 1.70961 11.3685C1.78854 11.6375 1.95905 11.8211 2.22744 11.9129C2.43584 11.9857 2.64424 12.0521 2.86527 12.0806C2.97263 12.0933 3.00736 12.1503 3.00736 12.2484C3.0042 12.356 2.94737 12.3971 2.84632 12.3971C2.72949 12.3971 2.60951 12.4161 2.49899 12.3908C1.95589 12.2737 1.40964 12.356 0.866541 12.337C0.670773 12.3307 0.47816 12.4225 0.276077 12.3971C0.181351 12.3845 0.111887 12.3687 0.108729 12.2547C0.105572 12.1566 0.140305 12.106 0.235031 12.068C0.373963 12.0173 0.519208 12.0078 0.654983 11.935C0.850751 11.8306 0.996001 11.6945 1.05599 11.4761C1.1223 11.2324 1.1823 10.9919 1.1823 10.7355C1.1823 8.09266 1.1823 5.44667 1.1823 2.80385C1.1823 2.74054 1.18545 2.67724 1.17914 2.61394C1.14125 2.21198 0.94232 2.00309 0.544469 1.96827C0.437112 1.95878 0.342387 1.91446 0.238188 1.9018C0.102413 1.88598 0.099255 1.79103 0.115043 1.69291C0.133988 1.57897 0.228713 1.57897 0.310809 1.59163C1.06231 1.71823 1.82012 1.63594 2.57478 1.6391C2.88422 1.6391 3.19997 1.5853 3.51257 1.58213C3.71781 1.57897 3.82832 1.6486 3.91042 1.85116C4.36826 2.96843 4.86084 4.06987 5.30606 5.1903C5.77969 6.38986 6.29437 7.57359 6.78379 8.76998C6.80273 8.81429 6.79642 8.88709 6.86589 8.88709C6.94483 8.89025 6.96377 8.82379 6.98587 8.76365C7.17532 8.25091 7.36478 7.74134 7.55739 7.23176C7.82262 6.53545 8.09733 5.8423 8.36256 5.14915C8.58359 4.56995 8.79831 3.99074 9.01618 3.41154C9.20879 2.90196 9.4014 2.38922 9.59085 1.87965C9.64769 1.72456 9.74241 1.64543 9.91924 1.6486C10.3297 1.6581 10.7402 1.63594 11.1507 1.65493C11.7096 1.68342 12.259 1.5853 12.8147 1.58846C12.8779 1.58846 12.941 1.58846 13.0042 1.58846C13.0831 1.58846 13.1557 1.60112 13.1652 1.69924C13.1747 1.79419 13.1368 1.86699 13.0421 1.89231C12.9315 1.92079 12.8179 1.95878 12.7042 1.95878C12.3221 1.96194 12.0695 2.26579 12.038 2.69623C12.0316 2.76903 12.0348 2.84499 12.0348 2.91779C12.0348 5.63657 12.0348 8.35219 12.0348 11.071C12.0348 11.2292 12.0664 11.3812 12.0853 11.5362C12.1232 11.8179 12.3063 11.935 12.5337 12.0015C12.6726 12.0395 12.8116 12.0965 12.9631 12.0838C13.0294 12.0775 13.0894 12.0996 13.1305 12.1534C13.2031 12.2452 13.1589 12.3845 13.0452 12.3908C12.7926 12.4003 12.5368 12.4161 12.2906 12.3781C12.1232 12.3528 11.959 12.337 11.7917 12.3338C11.1602 12.3338 10.5286 12.3402 9.89714 12.3307C9.48665 12.3243 9.08564 12.4288 8.67516 12.4003C8.41308 12.3813 8.36888 12.3718 8.37519 12.2294C8.38783 12.0237 8.54886 12.087 8.65937 12.0838C8.82041 12.0775 8.97197 12.0395 9.11722 11.9857C9.43297 11.8686 9.56875 11.5995 9.56243 11.2925C9.54665 10.7355 9.64137 10.1848 9.63822 9.62455C9.62558 7.65588 9.6319 5.68405 9.63506 3.71538C9.63822 3.51282 9.60348 3.32608 9.52139 3.07921Z" fill="#3649B8"/>
<path d="M5.96612 21.6958C6.07664 21.8636 6.19031 21.8636 6.30398 21.8794C6.7113 21.9364 7.11231 22.0471 7.45649 22.2655C8.00906 22.6137 8.3627 23.1169 8.50479 23.7721C8.65951 24.4874 8.77318 25.2122 8.99421 25.9117C9.01316 25.9718 9.0321 26.0319 9.06052 26.0889C9.25945 26.4782 9.56573 26.5637 9.94148 26.3326C10.0709 26.2535 10.2257 26.0857 10.3425 26.2725C10.4372 26.4212 10.2193 26.5162 10.1215 26.5985C9.66361 26.972 9.13946 27.1935 8.53637 27.1872C8.23324 27.184 7.93327 27.1745 7.63331 27.1017C6.88813 26.9213 6.51238 26.4244 6.35766 25.7091C6.17452 24.8514 6.07979 23.9746 5.84929 23.1232C5.74825 22.7498 5.63774 22.3763 5.34408 22.0883C5.23041 21.9775 5.10411 21.9047 4.96202 21.8889C4.61785 21.8509 4.27683 21.7844 3.9295 21.8097C3.68006 21.8287 3.64848 21.8509 3.64532 22.1168C3.64217 22.4966 3.64532 22.8764 3.64532 23.253C3.64532 23.981 3.65479 24.7058 3.64216 25.4337C3.63901 25.6806 3.69584 25.9117 3.7211 26.1522C3.74952 26.4022 4.01791 26.5953 4.32735 26.6111C4.45681 26.6175 4.5768 26.6333 4.69363 26.6839C4.76625 26.7124 4.78204 26.7694 4.77257 26.8359C4.76309 26.896 4.71889 26.9245 4.66205 26.9276C4.5989 26.9308 4.53575 26.9308 4.4726 26.9308C3.12748 26.9308 1.77921 26.9308 0.434093 26.9308C0.380414 26.9308 0.329894 26.9308 0.276215 26.9308C0.197276 26.9308 0.130967 26.9118 0.121494 26.8137C0.115179 26.7219 0.168859 26.6776 0.241483 26.6523C0.298319 26.6333 0.364629 26.6175 0.424622 26.6175C0.926673 26.627 1.19822 26.2756 1.1919 25.7882C1.17612 24.5349 1.18559 23.2815 1.18559 22.0281C1.18559 20.5121 1.18559 18.9928 1.18559 17.4768C1.18559 17.404 1.18875 17.328 1.18559 17.2552C1.15717 16.771 0.932988 16.5558 0.393047 16.5019C0.279375 16.4893 0.112023 16.5494 0.118338 16.3437C0.124653 16.1158 0.307793 16.1886 0.424622 16.1886C2.09812 16.1854 3.77162 16.1601 5.44197 16.1949C6.34503 16.2139 7.22598 16.407 8.01221 16.9102C8.76687 17.3945 9.12051 18.42 8.97527 19.2144C8.85844 19.8569 8.59636 20.3823 8.13536 20.8254C7.74382 21.1989 7.27335 21.4173 6.76182 21.5534C6.51238 21.6198 6.27556 21.7148 5.96612 21.6958ZM3.63901 19.398C3.63901 20.0405 3.63585 20.683 3.63901 21.3223C3.63901 21.5439 3.65164 21.5534 3.87267 21.5565C4.16632 21.5597 4.45681 21.5344 4.74731 21.5027C5.53038 21.4204 6.05138 21.0375 6.28504 20.2779C6.36082 20.0373 6.39239 19.7904 6.43344 19.5404C6.5408 18.9042 6.47449 18.287 6.28819 17.6825C6.14294 17.2078 5.88718 16.8121 5.38829 16.6127C4.97781 16.4481 4.56733 16.483 4.15053 16.5336C3.92003 16.5621 3.77794 16.7172 3.73058 16.9451C3.68321 17.1793 3.62954 17.4135 3.63269 17.6572C3.64532 18.2396 3.63901 18.8188 3.63901 19.398Z" fill="#3649B8"/>
<path d="M22.0095 17.4514C22.0095 18.1856 22.0032 18.7649 22.0127 19.3441C22.0158 19.5466 21.9495 19.7365 21.9463 19.9359C21.9463 19.9866 21.9369 20.0467 22 20.0689C22.06 20.091 22.1042 20.0467 22.1295 20.0056C22.2526 19.8062 22.42 19.6479 22.5905 19.4896C22.9631 19.1478 23.3925 18.9579 23.904 18.8883C24.2892 18.8376 24.6524 18.8788 25.0155 18.9642C25.4986 19.0814 25.8712 19.3694 26.1933 19.7492C26.7111 20.3632 26.8879 21.088 27.0047 21.8539C27.0868 22.3888 27.0774 22.9269 27.049 23.4586C26.9953 24.4493 26.7363 25.3956 26.0669 26.1553C25.7386 26.5256 25.3123 26.8168 24.8197 26.975C24.0398 27.2219 23.263 27.2852 22.48 26.9908C22.3126 26.9275 22.1326 26.8706 22.0063 26.7503C21.8548 26.6079 21.6874 26.5952 21.5106 26.6174C20.9896 26.687 20.4781 26.8041 20.036 27.1079C19.9476 27.1681 19.875 27.1997 19.7834 27.1238C19.6982 27.0541 19.7045 26.9782 19.7203 26.8737C19.7708 26.5003 19.8087 26.1268 19.8055 25.747C19.7992 22.8098 19.7992 19.8726 19.8024 16.9354C19.8024 16.6696 19.7582 16.4132 19.6919 16.16C19.6003 15.8055 19.3982 15.5586 18.9972 15.546C18.9435 15.546 18.893 15.5365 18.8519 15.4985C18.8014 15.451 18.7888 15.3909 18.8014 15.3244C18.8141 15.2675 18.8583 15.239 18.9151 15.2358C18.9467 15.2326 18.9782 15.2326 19.0098 15.2326C19.0824 15.2326 19.1582 15.2295 19.2309 15.2326C20.0802 15.2548 20.9296 15.2263 21.7664 15.0871C21.9274 15.0586 21.9306 15.1187 21.9495 15.2421C22.0695 16.0334 21.9716 16.8215 22.0095 17.4514ZM24.7976 22.9712C24.6966 22.5313 24.7376 22.028 24.6745 21.5279C24.6208 21.0975 24.5576 20.6765 24.3903 20.2777C24.1819 19.7872 23.7967 19.4928 23.2662 19.5371C22.8747 19.5719 22.5589 19.7713 22.341 20.0752C22.12 20.379 21.8864 20.7082 22 21.1355C22.0221 21.2146 22.0095 21.3032 22.0095 21.3887C22.0095 22.8731 22.0095 24.3607 22.0095 25.8451C22.0095 25.9495 22.0127 26.054 21.9874 26.1584C21.9337 26.3863 21.9716 26.4781 22.1705 26.6015C22.3695 26.725 22.5905 26.7851 22.8178 26.8389C23.1525 26.918 23.462 26.8579 23.7493 26.6807C24.1503 26.4338 24.3366 26.0382 24.4724 25.6109C24.7376 24.769 24.706 23.8922 24.7976 22.9712Z" fill="#3649B8"/>
<path d="M21.5422 1.58871C21.9842 1.58871 22.4263 1.58871 22.8684 1.58871C22.9378 1.58871 23.0231 1.56972 23.061 1.65518C23.0989 1.7438 23.0704 1.82293 23.001 1.88306C22.8841 1.98751 22.7578 2.08246 22.641 2.18691C22.1895 2.58254 21.899 3.09528 21.6274 3.61751C21.2138 4.42144 20.8223 5.23486 20.4118 6.04195C20.2318 6.39643 20.0297 6.73826 19.8782 7.10857C19.8308 7.22884 19.7961 7.34279 19.7961 7.47255C19.7992 8.65312 19.7929 9.83052 19.8024 11.0111C19.8024 11.2073 19.834 11.4099 19.8845 11.5998C19.9413 11.815 20.1023 11.9606 20.3234 12.0112C20.4749 12.0461 20.6233 12.103 20.7875 12.0872C20.8949 12.0777 20.9328 12.1473 20.9328 12.2455C20.9328 12.3499 20.8791 12.4005 20.7749 12.3974C20.5255 12.3847 20.2697 12.4385 20.0234 12.3594C20.0139 12.3562 20.0045 12.3499 19.995 12.3499C19.0477 12.3278 18.1036 12.3183 17.1563 12.3594C16.9416 12.3689 16.7206 12.3911 16.4996 12.4005C16.468 12.4005 16.4364 12.4005 16.4048 12.3974C16.2943 12.3942 16.2628 12.3309 16.2659 12.2296C16.2691 12.141 16.307 12.0809 16.3954 12.0872C16.5564 12.0967 16.708 12.0492 16.8595 12.0144C17.1437 11.9448 17.2984 11.7549 17.3363 11.4605C17.4658 10.5173 17.3616 9.57099 17.4026 8.62463C17.4121 8.39675 17.3679 8.18469 17.2669 7.98846C16.989 7.45673 16.7048 6.93133 16.4206 6.40593C16.2249 6.04511 16.0196 5.69063 15.827 5.32981C15.3755 4.49107 14.9271 3.64916 14.4724 2.81042C14.3777 2.63635 14.2735 2.46543 14.1504 2.30718C14.0241 2.13943 13.882 1.97801 13.6704 1.91471C13.5662 1.88306 13.5441 1.81976 13.5504 1.72481C13.5567 1.61087 13.6325 1.59188 13.7241 1.59188C13.8283 1.59188 13.9356 1.58238 14.0398 1.59504C15.0124 1.72481 15.9912 1.64568 16.9669 1.63935C17.3079 1.63619 17.6552 1.59188 17.9994 1.59188C18.0689 1.59188 18.151 1.57605 18.1983 1.65518C18.2615 1.75963 18.1952 1.90522 18.0689 1.89889C17.8542 1.88939 17.6521 1.94953 17.4468 1.98751C17.0143 2.06664 17.0111 2.36099 17.1437 2.64584C17.3048 2.99716 17.5037 3.32949 17.6805 3.67448C18.0941 4.47524 18.5015 5.27917 18.9151 6.08309C19.0635 6.37111 19.2214 6.65913 19.3761 6.94399C19.4645 7.10857 19.515 7.10857 19.6098 6.95665C19.7045 6.80473 19.7676 6.63698 19.8371 6.47556C20.0676 5.947 20.3549 5.44692 20.6139 4.93101C20.8728 4.41511 21.1096 3.88654 21.2264 3.31683C21.2738 3.07945 21.2706 2.83258 21.2296 2.5952C21.1633 2.22805 20.8728 2.07297 20.5507 1.97485C20.4213 1.93687 20.2855 1.92737 20.1497 1.90205C20.0392 1.88306 19.9824 1.8166 19.995 1.70582C20.0076 1.58555 20.0992 1.59188 20.1844 1.59188C20.6391 1.58871 21.0907 1.58871 21.5422 1.58871Z" fill="#3649B8"/>
<path d="M10.6455 23.0159C10.6644 22.3766 10.7055 21.7341 10.9139 21.1295C11.1349 20.487 11.4948 19.93 12.0727 19.528C12.6316 19.1387 13.2504 18.9836 13.9167 18.895C14.624 18.8 15.3029 18.8887 15.9502 19.1197C16.9574 19.4774 17.6237 20.199 17.9141 21.2435C18.0247 21.6391 18.0847 22.0379 18.1036 22.4494C18.1162 22.7089 18.1762 22.9684 18.1541 23.2311C18.0878 24.0445 18.0152 24.858 17.5984 25.5954C17.2163 26.2696 16.648 26.6937 15.9312 26.9437C15.3692 27.14 14.7945 27.2254 14.204 27.1906C13.3452 27.14 12.54 26.9469 11.8516 26.3645C11.2296 25.8391 10.9296 25.1555 10.7781 24.3927C10.6928 23.9401 10.6265 23.4812 10.6455 23.0159ZM15.8238 23.209C15.8175 22.595 15.8175 22.1265 15.767 21.6549C15.7039 21.0884 15.6091 20.5345 15.3913 20.0091C15.2902 19.7622 15.1387 19.5438 14.9303 19.3793C14.7187 19.2115 14.4914 19.1229 14.2009 19.202C13.863 19.2938 13.6704 19.5312 13.5157 19.8034C13.0894 20.5567 13.0326 21.4049 12.9915 22.2373C12.9473 23.1172 12.9631 23.9971 13.0957 24.877C13.1715 25.3707 13.2852 25.8423 13.5125 26.2822C13.9072 27.045 14.7471 27.083 15.2239 26.374C15.3913 26.1272 15.4955 25.8518 15.5618 25.5669C15.7607 24.7409 15.8586 23.9116 15.8238 23.209Z" fill="#3649B8"/>
<path d="M32.0537 27.1875C31.3369 27.1875 30.7149 27.0894 30.1181 26.8235C29.1708 26.3994 28.6435 25.6398 28.3878 24.6713C28.2109 24.0098 28.1573 23.3262 28.2015 22.6425C28.2394 22.0696 28.3088 21.4873 28.5235 20.9524C28.7856 20.2972 29.2056 19.756 29.8244 19.3793C30.3202 19.0786 30.857 18.971 31.4253 18.8887C32.0474 18.8001 32.641 18.8729 33.222 19.0343C34.365 19.354 35.1386 20.0693 35.4575 21.2435C35.5807 21.7025 35.6154 22.1677 35.6596 22.6362C35.6975 23.0476 35.6596 23.4528 35.6343 23.8547C35.5807 24.7093 35.3217 25.5037 34.7376 26.1557C34.4629 26.4627 34.1156 26.6938 33.7303 26.8394C33.1683 27.0578 32.5936 27.2128 32.0537 27.1875ZM30.538 22.997C30.5096 23.6743 30.5412 24.3105 30.658 24.9435C30.7496 25.4499 30.8475 25.9437 31.138 26.3899C31.4506 26.871 31.981 27.0071 32.461 26.7001C32.7104 26.5419 32.821 26.2981 32.9346 26.0544C33.2567 25.3676 33.3325 24.6207 33.3609 23.88C33.3862 23.1806 33.4083 22.4748 33.323 21.7721C33.2725 21.3543 33.2251 20.9429 33.1178 20.5377C33.0041 20.1105 32.8557 19.6927 32.502 19.392C32.221 19.1546 31.8611 19.0533 31.5232 19.3002C31.3369 19.4363 31.1759 19.5977 31.059 19.8066C30.7875 20.3035 30.6801 20.8511 30.6075 21.3986C30.5317 21.9399 30.4907 22.4842 30.538 22.997Z" fill="#3649B8"/>
<path d="M26.6164 11.3721C26.5027 11.5051 26.4175 11.6095 26.3259 11.7076C25.9123 12.1634 25.3944 12.385 24.7882 12.4736C24.283 12.5464 23.8093 12.5021 23.3578 12.2805C22.8179 12.0146 22.5684 11.5526 22.5179 10.9702C22.5084 10.8562 22.5242 10.7391 22.5147 10.622C22.4674 9.91305 22.821 9.42563 23.3736 9.04582C23.7936 8.7578 24.2703 8.59322 24.744 8.4318C25.2302 8.26722 25.707 8.08048 26.1617 7.84627C26.449 7.69751 26.648 7.46013 26.6259 7.08665C26.6038 6.71951 26.6196 6.3492 26.6227 5.98205C26.6259 5.80164 26.6069 5.62756 26.5627 5.45348C26.4301 4.93758 26.0512 4.6274 25.5239 4.6274C25.2208 4.6274 24.9145 4.58942 24.6335 4.75401C24.5987 4.77616 24.5514 4.78249 24.5229 4.80781C24.4724 4.85529 24.3714 4.86795 24.3777 4.95657C24.384 5.04836 24.4756 5.04836 24.5387 5.08001C25.1892 5.39018 25.2934 6.10232 25.0945 6.64355C24.9271 7.09931 24.2356 7.3905 23.7367 7.25757C23.1905 7.11514 22.9284 6.74799 22.8905 6.18778C22.8431 5.50413 23.2252 5.11482 23.7462 4.80465C24.1756 4.55144 24.6524 4.44383 25.1418 4.36154C25.6155 4.28558 26.0859 4.29824 26.5532 4.31723C27.0553 4.33622 27.5542 4.44383 27.9773 4.73818C28.4604 5.07368 28.7193 5.54527 28.7667 6.13714C28.9025 7.84943 28.7919 9.56489 28.8298 11.2772C28.833 11.4133 28.8235 11.5462 28.874 11.6823C28.9751 11.9577 29.1077 12.021 29.3793 11.9007C29.455 11.8659 29.5308 11.8247 29.6066 11.7931C29.6824 11.7583 29.755 11.7709 29.7992 11.8437C29.8529 11.9292 29.7866 11.983 29.7297 12.0273C29.4613 12.2394 29.1519 12.3533 28.8204 12.4388C28.372 12.5559 27.9331 12.54 27.4879 12.4261C27.0016 12.3027 26.749 11.9798 26.6732 11.4987C26.6701 11.4671 26.6511 11.4418 26.6164 11.3721ZM26.5659 7.91906C26.3733 8.00452 26.2691 8.1691 26.1112 8.27355C25.786 8.48244 25.4607 8.70083 25.1797 8.96037C24.8766 9.23889 24.6524 9.58705 24.6619 10.0302C24.665 10.2201 24.6524 10.41 24.665 10.5967C24.7124 11.3563 25.385 11.7646 26.0796 11.3911C26.4112 11.2139 26.6574 10.9544 26.6322 10.4923C26.5911 9.74847 26.6227 9.00151 26.6196 8.25456C26.6164 8.15328 26.6448 8.04567 26.5659 7.91906Z" fill="#3649B8"/>
<path d="M49.2718 22.6517C49.2781 23.5189 49.3571 24.1456 49.5939 24.7501C49.7896 25.2533 50.4306 25.9212 51.2421 25.9212C51.9999 25.9212 52.5999 25.6268 53.0514 25.0223C53.1145 24.94 53.1745 24.8514 53.244 24.7754C53.2977 24.7153 53.3735 24.7058 53.4461 24.7406C53.5156 24.7754 53.5061 24.845 53.5061 24.9083C53.5061 25.0286 53.4335 25.1267 53.3861 25.2312C53.064 25.9497 52.5872 26.5415 51.8705 26.8928C51.2705 27.1904 50.6327 27.2473 49.9728 27.1365C49.6318 27.0796 49.2971 27.0163 48.9845 26.8675C48.4572 26.6143 48.0214 26.2693 47.6772 25.7756C47.2005 25.0888 47.052 24.3291 47.0015 23.5252C46.9794 23.1486 46.9889 22.7719 47.0142 22.3985C47.0773 21.4964 47.3615 20.6735 48.0119 20.0152C48.1951 19.8284 48.3719 19.6354 48.5929 19.4834C49.0981 19.1353 49.657 18.9802 50.2601 18.8884C50.8601 18.7966 51.4253 18.8884 51.9936 19.0308C52.622 19.1891 53.124 19.5246 53.3798 20.1544C53.6703 20.8729 53.4335 21.5819 52.8367 21.8572C52.4862 22.0186 52.1136 22.025 51.7442 21.8731C51.1316 21.6199 50.8916 20.7083 51.3937 20.107C51.5263 19.9455 51.6842 19.8094 51.8768 19.7113C52.0915 19.6005 52.0852 19.5024 51.8705 19.3885C51.4979 19.1954 51.119 19.1733 50.718 19.3157C50.1812 19.5056 49.9033 19.936 49.7076 20.414C49.5623 20.7653 49.4423 21.1356 49.3949 21.5281C49.3413 21.9775 49.2655 22.4238 49.2718 22.6517Z" fill="#3649B8"/>
<path d="M54.7091 26.3614C54.7975 25.6493 54.7691 24.934 54.7722 24.2218C54.7722 24.1364 54.7691 24.0446 54.8859 24.0351C54.9996 24.0256 55.0627 24.0826 55.0817 24.1933C55.1259 24.4307 55.1574 24.6681 55.2143 24.9023C55.3406 25.4024 55.5079 25.8898 55.8584 26.2854C56.291 26.776 56.853 26.9089 57.4624 26.776C57.9108 26.6779 58.1508 26.3772 58.1824 25.8645C58.2139 25.3296 58.0087 24.9086 57.6487 24.5352C57.3046 24.1775 56.9004 23.8958 56.5278 23.5761C55.9879 23.1172 55.3974 22.7089 55.0406 22.0632C54.8796 21.7721 54.7596 21.4777 54.7722 21.1422C54.7785 20.9333 54.7469 20.7213 54.7943 20.5124C54.9206 19.9553 55.2711 19.566 55.7416 19.2748C56.2468 18.9615 56.8183 18.8381 57.393 18.8539C58.0087 18.8665 58.6213 18.9583 59.158 19.3255C59.4296 19.5122 59.6222 19.4426 59.7611 19.1514C59.7896 19.0944 59.8085 19.0343 59.8338 18.9773C59.8748 18.8919 59.9537 18.9077 60.0264 18.914C60.1022 18.9203 60.1337 18.9742 60.1337 19.0438C60.1337 19.2875 60.1716 19.5344 60.1274 19.7686C60.039 20.2307 60.0958 20.6928 60.0737 21.1517C60.0706 21.2372 60.0737 21.3195 60.0706 21.4049C60.0706 21.4872 60.0422 21.5473 59.9474 21.5568C59.8559 21.5632 59.7769 21.5537 59.7517 21.4461C59.7106 21.272 59.6727 21.1011 59.6285 20.927C59.5022 20.4206 59.2907 19.9585 58.8991 19.5945C58.4886 19.2147 57.9992 19.1356 57.4909 19.2622C56.8215 19.4268 56.7015 19.9173 56.8183 20.544C56.872 20.8352 57.0614 21.0599 57.2698 21.2467C57.674 21.6106 58.1097 21.943 58.5739 22.2278C58.7381 22.3291 58.8644 22.4684 59.0096 22.5886C59.518 23.0064 60.0327 23.4179 60.3105 24.0541C60.5663 24.6428 60.4937 25.7505 59.938 26.2918C59.4738 26.7444 58.937 27.0039 58.315 27.1242C57.4972 27.2793 56.7109 27.197 55.9721 26.7855C55.8521 26.719 55.7226 26.6779 55.5995 26.6178C55.3816 26.5102 55.2616 26.5386 55.0817 26.814C55.0595 26.8488 55.0374 26.8868 55.028 26.9279C55.0027 27.045 54.9301 27.0767 54.8196 27.0609C54.7027 27.045 54.7027 26.9596 54.6996 26.8741C54.7091 26.7001 54.7091 26.5291 54.7091 26.3614Z" fill="#3649B8"/>
<path d="M37.5383 22.4942C37.5383 21.6111 37.5383 20.7249 37.5383 19.8419C37.5383 19.7786 37.5414 19.7152 37.5383 19.6519C37.5288 19.4272 37.5257 19.4177 37.3078 19.4146C37.0773 19.4082 36.8468 19.4146 36.6131 19.4114C36.5405 19.4114 36.4647 19.4114 36.3953 19.3924C36.3163 19.3734 36.2816 19.3038 36.2847 19.2215C36.2879 19.1265 36.3479 19.0949 36.43 19.0949C36.7047 19.0949 36.9762 19.0981 37.251 19.0917C37.5067 19.0854 37.5383 19.0569 37.5383 18.7942C37.5414 18.31 37.5383 17.8257 37.5414 17.3415C37.5446 17.0788 37.5478 17.0851 37.8035 17.0693C38.3719 17.0344 38.9213 16.9173 39.4518 16.7116C39.7075 16.6135 39.7454 16.6356 39.7486 16.9047C39.7549 17.4934 39.7486 18.0821 39.7486 18.6739C39.7486 18.7467 39.7517 18.8227 39.7486 18.8955C39.7391 19.0474 39.818 19.0949 39.9601 19.0949C40.3485 19.0917 40.7369 19.0949 41.1284 19.0949C41.201 19.0949 41.2768 19.0949 41.3495 19.0949C41.4284 19.0949 41.4979 19.1076 41.5105 19.2057C41.52 19.3038 41.4789 19.3734 41.3873 19.3987C41.3179 19.4146 41.2421 19.4114 41.1695 19.4114C40.8 19.4114 40.4338 19.4114 40.0643 19.4114C39.7549 19.4114 39.7517 19.4146 39.7517 19.7279C39.7517 21.475 39.7517 23.2221 39.7517 24.9692C39.7517 25.2003 39.7612 25.4345 39.7486 25.6624C39.7107 26.3999 40.2443 26.4632 40.7685 26.2954C41.0432 26.2068 41.1505 25.9472 41.3179 25.751C41.3431 25.7194 41.3589 25.6782 41.3779 25.6402C41.4158 25.5643 41.4726 25.5231 41.5547 25.5706C41.6305 25.6118 41.6589 25.6814 41.6273 25.7573C41.58 25.8745 41.5168 25.9852 41.4631 26.0992C41.1347 26.7828 40.5443 27.0962 39.837 27.1785C39.2781 27.2449 38.7318 27.1531 38.2487 26.8176C37.9519 26.6087 37.7656 26.3271 37.6678 25.9821C37.573 25.6466 37.532 25.3079 37.5383 24.9566C37.5446 24.1337 37.5383 23.3139 37.5383 22.4942Z" fill="#3649B8"/>
<path d="M75.3563 33.3181C76.4709 32.3844 78.1002 32.5459 78.8643 33.622C79.1864 33.1947 79.6222 32.9415 80.1274 32.8117C80.8915 32.6123 81.6209 32.6725 82.2871 33.1409C82.5681 33.3403 82.7702 33.5966 82.8839 33.929C82.9976 34.2613 83.0639 34.5936 83.0607 34.945C83.0512 35.8913 83.0576 36.8408 83.0576 37.7872C83.0576 38.1227 83.0386 38.1385 82.6976 38.1417C82.5618 38.1417 82.4229 38.148 82.2871 38.1385C82.0914 38.129 82.0566 38.091 82.044 37.8885C82.0408 37.8157 82.044 37.7397 82.044 37.6669C82.044 36.7934 82.0408 35.9198 82.0471 35.0462C82.0471 34.831 81.9998 34.6316 81.9303 34.4322C81.6588 33.6789 80.9325 33.5745 80.3515 33.6853C79.5243 33.8435 79.2053 34.6 79.2053 35.1792C79.2085 36.0211 79.2085 36.863 79.2053 37.7049C79.2053 38.091 79.1548 38.1385 78.7665 38.1385C78.6812 38.1385 78.5991 38.1385 78.5138 38.1385C78.1728 38.1322 78.1318 38.0942 78.1318 37.7587C78.1318 36.8313 78.1286 35.9071 78.1349 34.9798C78.1349 34.7772 78.0971 34.581 78.0244 34.3974C77.8729 34.0113 77.6076 33.7612 77.1814 33.6821C76.6256 33.5808 75.8584 33.7264 75.5173 34.3531C75.3595 34.6443 75.2963 34.964 75.2931 35.2931C75.29 36.1034 75.2931 36.9136 75.2931 37.7239C75.2931 37.7967 75.2931 37.8726 75.29 37.9454C75.2837 38.072 75.2111 38.1353 75.0879 38.1385C74.889 38.1417 74.6869 38.1417 74.488 38.1385C74.3459 38.1385 74.2796 38.0594 74.2796 37.917C74.2796 37.8537 74.2796 37.7904 74.2796 37.727C74.2796 36.2015 74.2796 34.6728 74.2796 33.1472C74.2796 33.0934 74.2827 33.0428 74.2796 32.989C74.2669 32.8307 74.3269 32.7547 74.4943 32.7611C74.6711 32.7706 74.8511 32.7579 75.0311 32.7642C75.2489 32.7706 75.2774 32.8054 75.29 33.0269C75.2963 33.1092 75.2742 33.1947 75.3121 33.277C75.3184 33.2896 75.3279 33.2928 75.3563 33.3181Z" fill="#3649B8"/>
<path d="M33.4967 7.96954C33.4967 9.05515 33.4999 10.1376 33.4936 11.2232C33.4936 11.5049 33.5851 11.7296 33.7998 11.9164C33.9388 12.0366 34.1061 12.043 34.2672 12.0778C34.3745 12.0999 34.4471 12.1189 34.444 12.2455C34.4408 12.3753 34.3619 12.4038 34.2545 12.3975C33.983 12.3816 33.7083 12.4386 33.4399 12.35C33.3546 12.3215 33.2536 12.3342 33.1589 12.3342C32.7073 12.3342 32.2526 12.35 31.8043 12.3278C31.4127 12.312 31.0338 12.4323 30.6454 12.3975C30.5728 12.3911 30.497 12.4006 30.4244 12.388C30.3455 12.3753 30.2887 12.3247 30.2887 12.2392C30.2887 12.1537 30.3423 12.0936 30.4244 12.0904C30.5539 12.0873 30.6739 12.0461 30.7907 12.005C31.0054 11.9322 31.1538 11.7929 31.1949 11.565C31.2359 11.3403 31.2928 11.1188 31.2896 10.8814C31.2833 9.35583 31.2833 7.83028 31.2864 6.30155C31.2864 6.0167 31.2264 5.74134 31.1759 5.46281C31.1222 5.1558 30.9107 5.00388 30.6581 4.88044C30.5823 4.84563 30.5002 4.82664 30.4181 4.80448C30.3265 4.776 30.2665 4.72219 30.2887 4.62091C30.3171 4.5038 30.4118 4.47532 30.5097 4.5038C30.8728 4.60825 31.2422 4.55761 31.6053 4.55128C32.1169 4.53862 32.6284 4.49747 33.1336 4.41201C33.462 4.35821 33.4904 4.37403 33.4904 4.71586C33.4936 5.59891 33.4904 6.48513 33.4904 7.36818C33.4967 7.57074 33.4967 7.77014 33.4967 7.96954Z" fill="#3649B8"/>
<path d="M45.1418 18.9326C45.1954 19.075 45.1733 19.1922 45.1733 19.3061C45.1733 21.433 45.1765 23.5599 45.1733 25.6837C45.1733 25.8419 45.186 25.9939 45.2365 26.1489C45.3281 26.4338 45.5238 26.5762 45.808 26.6142C45.8585 26.6205 45.9122 26.6174 45.9659 26.6237C46.0638 26.6395 46.1143 26.6965 46.1174 26.7946C46.1206 26.9086 46.0448 26.9307 45.9501 26.9307C45.8775 26.9307 45.8017 26.9307 45.7291 26.9307C44.6239 26.9307 43.5219 26.9307 42.4168 26.9307C42.3442 26.9307 42.2684 26.9307 42.1958 26.9307C42.1042 26.9307 42.0253 26.9117 42.0253 26.7946C42.0253 26.6965 42.0789 26.6395 42.1737 26.6205C42.2052 26.6142 42.2368 26.6142 42.2684 26.6142C42.7262 26.5826 42.8967 26.3452 42.963 25.8704C42.9788 25.7565 42.9662 25.6394 42.9662 25.5223C42.9662 23.8923 42.9662 22.2591 42.9662 20.6291C42.9662 20.4613 42.9409 20.2968 42.9125 20.1322C42.8367 19.7112 42.5841 19.4928 42.1863 19.4105C42.0947 19.3915 42.0221 19.3821 42.0221 19.2681C42.0221 19.1732 42.0442 19.0972 42.1547 19.0972C42.3031 19.094 42.4484 19.094 42.5968 19.094C42.8904 19.094 43.1841 19.0877 43.4809 19.094C44.0366 19.1099 44.5829 19.0181 45.1418 18.9326Z" fill="#3649B8"/>
<path d="M42.9093 37.3793C42.9093 38.1421 42.9093 38.8352 42.9093 39.5315C42.9093 39.617 42.9093 39.6993 42.9062 39.7847C42.8999 39.8955 42.843 39.9588 42.7325 39.9715C42.7104 39.9746 42.6915 39.9746 42.6694 39.9746C41.8958 40.0379 41.8958 40.0379 41.8958 39.2657C41.8958 37.2558 41.8958 35.2429 41.8958 33.2331C41.8958 33.1698 41.8958 33.1065 41.8958 33.0432C41.9021 32.7773 41.9021 32.7741 42.1547 32.7678C42.322 32.7646 42.4925 32.7615 42.6599 32.7678C42.8588 32.7773 42.8904 32.8153 42.9062 33.0115C42.9156 33.1254 42.8841 33.2426 42.9314 33.3533C43.0262 33.404 43.064 33.3217 43.1177 33.2774C43.6892 32.7963 44.346 32.6475 45.0817 32.7361C45.6217 32.8026 46.0795 33.021 46.5121 33.3312C46.7615 33.5116 46.9194 33.7616 47.0583 34.0148C47.2573 34.382 47.4152 34.7776 47.3899 35.2144C47.3709 35.5277 47.4151 35.8411 47.3331 36.1544C47.0426 37.2558 46.3226 37.9205 45.227 38.1136C44.5765 38.2275 43.9008 38.1927 43.3324 37.7464C43.203 37.6515 43.0862 37.5344 42.9093 37.3793ZM44.6681 33.654C43.5787 33.5844 42.922 34.4484 42.9156 35.4106C42.9093 36.5405 43.5914 37.2242 44.627 37.2527C45.5964 37.2812 46.3668 36.5279 46.3668 35.4264C46.3668 34.4263 45.7227 33.616 44.6681 33.654Z" fill="#3649B8"/>
<path d="M33.1494 35.841C33.2693 36.5974 33.7398 36.9899 34.4218 37.1766C34.9839 37.3317 35.5175 37.2462 36.029 36.9741C36.1522 36.9076 36.2501 36.8126 36.3448 36.7177C36.4269 36.6322 36.5027 36.6196 36.5848 36.7145C36.7205 36.8728 36.8563 37.031 36.9921 37.1924C37.0426 37.2526 37.0174 37.3127 36.97 37.3602C36.85 37.4773 36.7458 37.6102 36.6006 37.702C36.1901 37.9679 35.7512 38.123 35.2523 38.1578C34.7629 38.1926 34.2955 38.1578 33.8409 37.9932C32.9125 37.6577 32.3252 37.0089 32.12 36.034C31.9274 35.113 32.1453 34.2806 32.7483 33.5716C33.1304 33.1222 33.6419 32.8658 34.2356 32.7614C34.6934 32.6791 35.1323 32.7076 35.568 32.8342C36.0859 32.9861 36.5153 33.2773 36.8405 33.7109C37.1531 34.1223 37.3205 34.5876 37.3584 35.1035C37.371 35.2902 37.4499 35.4675 37.371 35.6574C37.3268 35.7618 37.2763 35.8125 37.1658 35.8061C37.0931 35.803 37.0173 35.8061 36.9447 35.8061C35.7985 35.8061 34.6523 35.8061 33.5062 35.8061C33.3956 35.8061 33.2788 35.7808 33.1494 35.841ZM36.3701 35.0054C36.3574 34.5971 36.1711 34.2521 35.8743 33.9989C35.3312 33.54 34.7029 33.4703 34.0524 33.733C33.5598 33.9324 33.282 34.3281 33.143 34.8281C33.1083 34.9516 33.1367 35.037 33.2883 35.037C33.342 35.037 33.3925 35.037 33.4462 35.037C34.3271 35.037 35.2081 35.037 36.089 35.037C36.1806 35.0402 36.2753 35.0624 36.3701 35.0054Z" fill="#3649B8"/>
<path d="M51.5863 35.8032C50.999 35.8032 50.4085 35.8001 49.8212 35.8032C49.5149 35.8032 49.4897 35.838 49.597 36.1356C49.8117 36.7338 50.2696 37.0534 50.8695 37.1895C51.58 37.3478 52.2209 37.2117 52.764 36.7084C52.8335 36.642 52.9124 36.6008 52.9724 36.7021C53.0608 36.8509 53.1935 36.9553 53.3008 37.0819C53.424 37.2275 53.4208 37.3288 53.2724 37.4617C52.8651 37.8257 52.3914 38.0884 51.8452 38.1327C51.4221 38.1644 50.9895 38.1865 50.5601 38.0884C49.818 37.9175 49.2213 37.5345 48.8424 36.873C48.2487 35.8349 48.3119 34.7967 48.9592 33.8092C49.3507 33.211 49.9349 32.8882 50.6453 32.7616C51.0716 32.6856 51.4726 32.7205 51.8831 32.8249C52.8177 33.0623 53.3545 33.6858 53.645 34.5752C53.7366 34.86 53.7745 35.1449 53.765 35.4424C53.7555 35.7937 53.7492 35.8064 53.3798 35.8064C52.7861 35.8032 52.1862 35.8032 51.5863 35.8032ZM51.1379 35.0436C51.6115 35.0436 52.082 35.0468 52.5556 35.0405C52.7451 35.0373 52.7798 34.9898 52.7261 34.8062C52.6535 34.5657 52.5619 34.3283 52.3851 34.1384C51.8799 33.5972 51.2547 33.4643 50.5759 33.6858C50.0864 33.8441 49.7328 34.1859 49.5812 34.7018C49.496 34.9961 49.5212 35.0405 49.8149 35.0436C50.2569 35.0436 50.699 35.0436 51.1379 35.0436Z" fill="#3649B8"/>
<path d="M88.2959 37.6286C88.1886 37.6128 88.1349 37.6476 88.0907 37.6919C87.7339 38.0306 87.3044 38.154 86.8213 38.1414C86.4361 38.1319 86.0414 38.1857 85.6751 38.0148C85.211 37.7996 84.8226 37.4957 84.6868 36.9798C84.4879 36.2202 84.7595 35.6093 85.4541 35.2359C85.7983 35.0491 86.1867 34.989 86.5782 34.9795C87.0518 34.97 87.5255 34.9795 87.9991 34.9763C88.2201 34.9732 88.2264 34.9605 88.2328 34.7421C88.2454 34.1439 87.8349 33.6945 87.2066 33.6533C86.5656 33.6122 85.9498 33.6881 85.3941 34.049C85.2552 34.1376 85.1668 34.1059 85.0784 33.9667C84.9994 33.8432 84.9236 33.7166 84.8573 33.5869C84.791 33.4571 84.8194 33.3526 84.9552 33.2672C85.4067 32.9823 85.8962 32.8367 86.4235 32.7545C86.9761 32.669 87.5065 32.7007 88.0307 32.8779C88.7443 33.1216 89.1295 33.628 89.2495 34.375C89.3379 34.9225 89.2905 35.4669 89.3032 36.0113C89.3158 36.6127 89.3063 37.2109 89.3063 37.8122C89.3063 38.1129 89.2811 38.1351 88.9811 38.1382C88.8453 38.1414 88.7064 38.1414 88.5706 38.1382C88.3338 38.1287 88.3054 38.1002 88.2959 37.8597C88.2928 37.7869 88.2959 37.7141 88.2959 37.6286ZM88.2328 36.1569C88.2328 36.1157 88.2328 36.0714 88.2328 36.0303C88.2296 35.7423 88.2296 35.7423 87.9296 35.7391C87.5318 35.7359 87.1339 35.7391 86.7361 35.7391C86.4898 35.7391 86.2625 35.8182 86.0351 35.8942C85.9435 35.9258 85.8646 35.9796 85.8109 36.0588C85.4667 36.5494 85.7604 37.1286 86.1677 37.252C86.534 37.3628 86.8971 37.4039 87.2729 37.29C87.797 37.1349 88.3117 36.7614 88.2328 36.1569Z" fill="#3649B8"/>
<path d="M65.7258 38.1351C65.1512 38.1889 64.6554 38.0496 64.1944 37.7711C63.5787 37.3945 63.143 36.8722 62.9851 36.1538C62.7956 35.2929 62.9061 34.4794 63.4366 33.7578C63.8313 33.2197 64.387 32.9096 65.0343 32.7766C65.5238 32.6753 66.0037 32.707 66.4931 32.8241C67.4214 33.0393 68.334 34.0205 68.4224 35.0681C68.4729 35.6885 68.3971 36.255 68.1035 36.7931C67.813 37.3217 67.3804 37.7046 66.8247 37.9515C66.4679 38.1066 66.0921 38.1857 65.7258 38.1351ZM65.6816 33.6534C64.5954 33.5932 63.945 34.4256 63.9355 35.4511C63.9229 36.4829 64.7281 37.2805 65.6753 37.2552C66.6794 37.2267 67.3867 36.5367 67.3993 35.4416C67.4088 34.3876 66.6384 33.5774 65.6816 33.6534Z" fill="#3649B8"/>
<path d="M4.52614 33.4033C5.13554 32.9032 5.7639 32.6753 6.47435 32.707C7.21006 32.7418 7.84472 32.9887 8.26783 33.6407C8.37835 33.8116 8.45729 33.9952 8.49834 34.1914C8.57412 34.5491 8.63411 34.9099 8.63095 35.2802C8.62464 36.0809 8.63095 36.8817 8.6278 37.6825C8.6278 38.1003 8.58675 38.1446 8.18258 38.1446C7.48792 38.1446 7.55423 38.2142 7.55423 37.521C7.55423 36.657 7.5637 35.7929 7.54791 34.9289C7.5416 34.4889 7.37741 34.0965 6.99219 33.8559C6.48066 33.5394 5.63444 33.5647 5.11976 33.9857C4.73769 34.2959 4.5956 34.739 4.58929 35.2201C4.57982 36.0208 4.58613 36.8216 4.58613 37.6223C4.58613 37.6951 4.58929 37.7711 4.58613 37.8439C4.5735 38.0496 4.49772 38.1351 4.29879 38.1446C4.10934 38.1541 3.91989 38.1477 3.73044 38.1477C3.5915 38.1477 3.51572 38.0781 3.51256 37.9357C3.51256 37.8724 3.51256 37.8091 3.51256 37.7458C3.51256 36.2075 3.51256 34.6693 3.51256 33.1311C3.51256 33.0678 3.51572 33.0045 3.51256 32.9412C3.50941 32.8209 3.57256 32.7703 3.68939 32.7735C3.91041 32.7735 4.13144 32.7735 4.35247 32.7735C4.4693 32.7735 4.52614 32.8273 4.52298 32.9444C4.52614 33.0741 4.52614 33.2071 4.52614 33.4033Z" fill="#3649B8"/>
<path d="M19.2371 33.3846C19.4897 33.2137 19.6981 33.0554 19.9381 32.9542C20.8159 32.5838 21.6621 32.606 22.4862 33.1251C22.8304 33.3403 22.9978 33.6758 23.1367 34.0271C23.2314 34.2708 23.2819 34.5272 23.2819 34.7962C23.2756 35.7742 23.2788 36.7554 23.2788 37.7334C23.2788 37.7967 23.2788 37.86 23.2788 37.9233C23.2788 38.0879 23.1872 38.1449 23.0356 38.1417C22.8683 38.1385 22.6978 38.1449 22.5304 38.1417C22.3094 38.1354 22.2715 38.1005 22.2684 37.8822C22.2621 37.5467 22.2652 37.208 22.2652 36.8725C22.2652 36.2616 22.2652 35.6508 22.2652 35.0399C22.2652 34.8057 22.2084 34.5873 22.12 34.3689C21.9179 33.8752 21.5232 33.6885 21.0274 33.6568C20.538 33.6252 20.0897 33.7264 19.7234 34.0841C19.4392 34.3626 19.3003 34.7044 19.3003 35.1001C19.2971 35.9736 19.3003 36.8472 19.2971 37.7207C19.2971 38.0879 19.2434 38.1385 18.8772 38.1417C18.7287 38.1417 18.5835 38.1417 18.4351 38.1385C18.293 38.1354 18.2235 38.0626 18.2235 37.9201C18.2235 37.8663 18.2235 37.8157 18.2235 37.7619C18.2235 36.2142 18.2235 34.6665 18.2235 33.1187C18.2235 33.0649 18.2267 33.0143 18.2235 32.9605C18.2172 32.8339 18.2678 32.7611 18.4067 32.7643C18.6277 32.7674 18.8487 32.7674 19.0698 32.7643C19.1898 32.7643 19.2371 32.8276 19.2371 32.9415C19.234 33.0776 19.2371 33.2105 19.2371 33.3846Z" fill="#3649B8"/>
<path d="M92.2713 33.3781C92.5523 33.2135 92.7607 33.0236 93.0259 32.9192C93.7553 32.6311 94.4752 32.6248 95.1952 32.9382C95.7793 33.1914 96.0982 33.6693 96.2466 34.2706C96.3066 34.5144 96.3193 34.7676 96.3161 35.0208C96.3098 35.9165 96.3129 36.8122 96.3129 37.7047C96.3129 37.7902 96.3161 37.8725 96.3098 37.9579C96.3035 38.0687 96.2372 38.1352 96.1266 38.1383C95.9151 38.1447 95.7067 38.1415 95.4951 38.1383C95.3688 38.1352 95.3057 38.0624 95.2994 37.9389C95.2962 37.8661 95.2962 37.7902 95.2962 37.7174C95.2962 36.866 95.2899 36.0114 95.2994 35.16C95.3025 34.891 95.2394 34.6378 95.1541 34.3909C94.9868 33.9003 94.5952 33.7009 94.1153 33.6598C93.8879 33.6408 93.6606 33.6693 93.4301 33.7073C92.8301 33.8022 92.3155 34.4637 92.3313 35.0967C92.3502 35.8975 92.3344 36.6982 92.3344 37.4958C92.3344 37.5591 92.3376 37.6224 92.3344 37.6857C92.3186 38.075 92.2523 38.1415 91.8671 38.1415C91.7313 38.1415 91.5924 38.1415 91.4566 38.1383C91.3303 38.1352 91.2672 38.0655 91.2609 37.9389C91.2577 37.8756 91.2577 37.8123 91.2577 37.749C91.2577 36.2013 91.2577 34.6536 91.2577 33.1059C91.2577 33.0426 91.2609 32.9793 91.2609 32.916C91.2609 32.8305 91.3019 32.7736 91.3903 32.7704C91.6208 32.7672 91.8545 32.7641 92.085 32.7704C92.2144 32.7736 92.2681 32.8559 92.2681 32.9793C92.2713 33.1027 92.2713 33.223 92.2713 33.3781Z" fill="#3649B8"/>
<path d="M100.591 38.1421C99.8842 38.2022 99.2369 37.9205 98.6843 37.4363C98.2202 37.028 97.9486 36.4836 97.8981 35.8664C97.8665 35.474 97.8539 35.072 97.9454 34.6732C98.1728 33.7015 99.1043 32.9039 100.099 32.7583C100.554 32.6919 100.989 32.7045 101.435 32.8153C101.978 32.9482 102.404 33.2363 102.745 33.6762C102.836 33.7965 102.818 33.8883 102.71 33.9737C102.638 34.0339 102.559 34.0877 102.477 34.1351C102.35 34.2048 102.243 34.3504 102.094 34.3345C101.952 34.3219 101.908 34.151 101.804 34.0623C101.517 33.8155 101.195 33.6572 100.809 33.6509C100.503 33.6477 100.203 33.6477 99.9126 33.7743C99.2969 34.0465 98.9748 34.5371 98.9054 35.1891C98.8548 35.6797 98.9495 36.1481 99.2432 36.5659C99.5684 37.0343 100.317 37.3382 100.879 37.2369C101.286 37.1641 101.63 36.9932 101.905 36.6798C102.088 36.4709 102.098 36.4836 102.341 36.6387C102.445 36.7083 102.559 36.7653 102.663 36.8349C102.83 36.9489 102.84 37.0248 102.717 37.1926C102.246 37.8256 101.621 38.1484 100.831 38.1389C100.768 38.1421 100.705 38.1421 100.591 38.1421Z" fill="#3649B8"/>
<path d="M11.7253 35.8721C11.7253 36.5146 11.7253 37.1571 11.7253 37.7964C11.7253 38.1161 11.7032 38.1351 11.3843 38.1383C11.2675 38.1383 11.1538 38.1414 11.037 38.1383C10.7623 38.1256 10.7117 38.0781 10.7117 37.7964C10.7086 36.6918 10.7117 35.5872 10.7117 34.4826C10.7117 34.2832 10.7149 34.0838 10.7117 33.8813C10.7054 33.6629 10.6991 33.6597 10.4718 33.6502C10.336 33.647 10.1971 33.647 10.0613 33.6502C9.90656 33.6534 9.82762 33.5806 9.82762 33.4223C9.82762 33.2641 9.83078 33.1058 9.82762 32.9476C9.82446 32.8115 9.89077 32.7608 10.0202 32.7608C10.1876 32.764 10.3581 32.7577 10.5254 32.7608C10.6581 32.764 10.7149 32.707 10.7149 32.5709C10.7149 32.3304 10.7244 32.093 10.7717 31.8525C10.9107 31.1466 11.5201 30.6149 12.2305 30.6117C12.4421 30.6086 12.6505 30.6086 12.862 30.6117C13.0799 30.6181 13.2662 30.713 13.4525 30.8143C13.5093 30.846 13.5567 30.8966 13.5535 30.9631C13.5504 31.2131 13.4335 31.4252 13.3136 31.6309C13.2757 31.6974 13.2062 31.6625 13.1494 31.6246C13.0357 31.5454 12.8999 31.5233 12.7673 31.4916C12.1895 31.3587 11.7506 31.672 11.7348 32.2576C11.719 32.8526 11.6874 32.7513 12.2021 32.7608C12.4863 32.764 12.7705 32.764 13.0546 32.7608C13.1841 32.7608 13.2504 32.8083 13.2472 32.9444C13.2441 33.0932 13.2504 33.2387 13.2472 33.3875C13.2378 33.6059 13.203 33.6407 12.982 33.647C12.6663 33.6534 12.3505 33.647 12.0347 33.6502C11.7348 33.6534 11.7316 33.6534 11.7316 33.9446C11.7253 34.5902 11.7253 35.2296 11.7253 35.8721Z" fill="#3649B8"/>
<path d="M60.8379 35.8917C60.8379 36.5247 60.8379 37.1545 60.8379 37.7875C60.8379 38.0787 60.8348 38.0787 60.5348 38.0819C60.3548 38.085 60.178 38.0819 59.998 38.0819C59.8812 38.0819 59.8244 38.0281 59.8244 37.911C59.8244 37.8382 59.8244 37.7622 59.8244 37.6894C59.8244 36.4772 59.8244 35.2681 59.8244 34.0559C59.8244 33.9926 59.818 33.9293 59.8244 33.866C59.8401 33.6951 59.7486 33.6476 59.597 33.654C59.4486 33.6603 59.3034 33.654 59.155 33.654C59.0129 33.654 58.956 33.578 58.9402 33.4387C58.8708 32.7994 58.8866 32.7804 59.5339 32.7677C59.8212 32.7646 59.8212 32.7646 59.8275 32.4639C59.8307 32.2234 59.8244 31.9828 59.8875 31.7454C60.0675 31.0776 60.7274 30.6187 61.3242 30.6187C61.6999 30.6187 62.0788 30.5775 62.4293 30.7801C62.7009 30.9352 62.7135 30.9352 62.5967 31.2105C62.5304 31.3625 62.5241 31.5745 62.3757 31.6505C62.2336 31.7233 62.0978 31.546 61.9494 31.5049C61.8168 31.4669 61.6842 31.4258 61.5484 31.4479C61.1695 31.5049 60.8442 31.66 60.8442 32.217C60.8411 32.8659 60.7621 32.7614 61.3905 32.7709C61.6431 32.7741 61.8957 32.7772 62.1483 32.7709C62.2904 32.7677 62.363 32.8184 62.3599 32.9703C62.3536 33.1191 62.363 33.2647 62.3567 33.4134C62.3472 33.6096 62.3093 33.6508 62.1104 33.6571C61.7947 33.6635 61.4789 33.6571 61.1631 33.6603C60.8474 33.6603 60.8442 33.6635 60.8442 33.9705C60.8348 34.6066 60.8379 35.2491 60.8379 35.8917Z" fill="#3649B8"/>
<path d="M29.5276 35.2548C29.5276 35.6852 29.5244 36.1189 29.5276 36.5493C29.5308 36.9798 29.8086 37.2456 30.2412 37.2551C30.4528 37.2583 30.6549 37.2425 30.8475 37.1348C31.0369 37.0272 31.0843 37.0494 31.1537 37.2393C31.1948 37.3596 31.2453 37.4735 31.3053 37.5843C31.3779 37.7204 31.3621 37.8185 31.2169 37.8945C30.9453 38.0369 30.6738 38.1603 30.3517 38.1413C30.0391 38.1223 29.7265 38.1635 29.4234 38.0274C28.915 37.7995 28.5993 37.4355 28.514 36.8785C28.3909 36.0745 28.4825 35.2643 28.454 34.4572C28.4477 34.2578 28.4477 34.0584 28.454 33.859C28.4572 33.7134 28.4035 33.6438 28.252 33.6501C28.1036 33.6564 27.9583 33.6564 27.8099 33.6501C27.6141 33.6406 27.5794 33.6026 27.5699 33.4001C27.5636 33.2735 27.5636 33.1469 27.5699 33.0203C27.5794 32.805 27.6141 32.7734 27.8383 32.7639C27.9741 32.7576 28.113 32.7576 28.2488 32.7639C28.394 32.7702 28.4604 32.7101 28.454 32.5613C28.4477 32.3524 28.4509 32.1404 28.454 31.9315C28.4604 31.6593 28.4888 31.6308 28.7698 31.6276C28.9498 31.6245 29.1266 31.634 29.3066 31.6245C29.4645 31.6181 29.5371 31.6783 29.5308 31.8429C29.5213 32.0423 29.5276 32.2417 29.5308 32.4411C29.5339 32.7576 29.5339 32.7607 29.837 32.7607C30.1402 32.7639 30.4464 32.7576 30.7496 32.7639C31.0085 32.7671 31.0401 32.7987 31.0401 33.0582C31.0432 33.7039 31.0843 33.6501 30.478 33.6501C30.257 33.6501 30.036 33.6469 29.8149 33.6501C29.5308 33.6533 29.5276 33.6533 29.5276 33.9571C29.5244 34.3939 29.5276 34.8243 29.5276 35.2548Z" fill="#3649B8"/>
<path d="M56.291 33.4796C56.5468 33.2359 56.7615 33.0713 57.0046 32.9447C57.3109 32.7833 57.6488 32.7738 57.974 32.7105C58.1129 32.6852 58.1919 32.7485 58.1856 32.9036C58.1793 33.103 58.1761 33.3024 58.1856 33.5049C58.1919 33.6727 58.1193 33.7328 57.9614 33.7233C57.6614 33.7043 57.3804 33.774 57.112 33.9069C56.8026 34.062 56.5942 34.2962 56.4836 34.619C56.3984 34.8691 56.3447 35.1223 56.3479 35.3881C56.3573 36.1889 56.351 36.9897 56.351 37.7872C56.351 38.1227 56.3321 38.1386 55.9911 38.1417C55.8648 38.1417 55.7385 38.1449 55.6122 38.1417C55.3564 38.1322 55.2869 38.0563 55.2775 37.7936C55.2775 37.7524 55.2775 37.7081 55.2775 37.667C55.2775 36.1731 55.2775 34.676 55.2775 33.1821C55.2775 33.1093 55.2775 33.0333 55.2806 32.9605C55.2869 32.8339 55.3596 32.7706 55.4827 32.7675C55.6943 32.7643 55.9027 32.7675 56.1142 32.7643C56.2563 32.7611 56.2942 32.8403 56.291 32.9669C56.2879 33.1125 56.291 33.2581 56.291 33.4796Z" fill="#3649B8"/>
<path d="M70.9389 33.5149C71.1789 33.3504 71.3178 33.1478 71.523 33.0212C71.8767 32.806 72.2682 32.7585 72.6629 32.7047C72.8176 32.6857 72.8966 32.7743 72.8934 32.9326C72.8903 33.113 72.8997 33.2902 72.8903 33.4706C72.8808 33.67 72.8429 33.7048 72.644 33.7143C72.4672 33.7238 72.2935 33.7207 72.1135 33.7681C71.7157 33.8726 71.4125 34.0847 71.2262 34.4581C71.0842 34.743 70.9957 35.0437 70.9957 35.3665C70.9957 36.1673 70.9957 36.968 70.9957 37.7688C70.9957 38.0568 70.9926 38.0536 70.7179 38.1201C70.6042 38.1486 70.4874 38.1423 70.3737 38.1391C70.0264 38.1264 69.9822 38.079 69.9822 37.7276C69.9822 36.1894 69.9822 34.6512 69.9822 33.1161C69.9822 33.0623 69.9853 33.0117 69.9822 32.9579C69.9758 32.8281 70.0327 32.7617 70.1685 32.7648C70.3579 32.768 70.5474 32.7712 70.7368 32.7648C70.8915 32.7617 70.9389 32.8345 70.9357 32.9769C70.9326 33.1415 70.9389 33.306 70.9389 33.5149Z" fill="#3649B8"/>
<path d="M16.2059 35.4515C16.2059 36.2207 16.2059 36.9898 16.2059 37.7557C16.2059 38.0627 16.2027 38.0596 15.9091 38.126C15.6849 38.1735 15.4702 38.1197 15.2586 38.0659C15.1797 38.0469 15.1418 37.9804 15.1355 37.9013C15.1323 37.8285 15.1323 37.7525 15.1323 37.6797C15.1323 36.1732 15.1323 34.6698 15.1323 33.1632C15.1323 33.1094 15.1323 33.0588 15.1323 33.005C15.1292 32.853 15.1955 32.7676 15.3565 32.7676C15.587 32.7676 15.8175 32.7676 16.0512 32.7676C16.1554 32.7676 16.2059 32.8214 16.2059 32.9227C16.2059 32.9955 16.209 33.0714 16.209 33.1442C16.2059 33.9133 16.2059 34.6824 16.2059 35.4515Z" fill="#3649B8"/>
<path d="M1.49807 35.4233C1.49807 36.1797 1.49807 36.9394 1.49807 37.6958C1.49807 37.7813 1.49807 37.8636 1.49491 37.949C1.49176 38.0218 1.45071 38.0725 1.37809 38.0725C1.12548 38.0756 0.872877 38.0756 0.620273 38.0725C0.531862 38.0725 0.490815 38.0155 0.487658 37.93C0.4845 37.8667 0.484497 37.8034 0.484497 37.7401C0.484497 36.1924 0.484497 34.6447 0.484497 33.1001C0.484497 33.0368 0.4845 32.9735 0.487658 32.9102C0.490815 32.8248 0.531862 32.771 0.620273 32.7678C0.863405 32.7647 1.10338 32.7646 1.34651 32.7646C1.45387 32.7646 1.49491 32.8248 1.49491 32.9261C1.49491 32.9989 1.49807 33.0748 1.49807 33.1476C1.49807 33.9104 1.49807 34.6668 1.49807 35.4233Z" fill="#3649B8"/>
<path d="M25.2933 35.4103C25.2933 34.6317 25.2933 33.8531 25.2933 33.0745C25.2933 32.7738 25.2965 32.7707 25.5838 32.7675C25.7638 32.7644 25.9406 32.7707 26.1206 32.7675C26.2564 32.7644 26.3101 32.8308 26.3069 32.9606C26.3037 33.0239 26.3069 33.0872 26.3069 33.1505C26.3069 34.6665 26.3069 36.1826 26.3069 37.6955C26.3069 37.7588 26.3037 37.8221 26.3069 37.8854C26.3164 38.0405 26.2343 38.0848 26.0922 38.0816C25.8933 38.0753 25.6912 38.0753 25.4922 38.0816C25.3407 38.0848 25.287 38.0183 25.2902 37.8728C25.2933 37.5151 25.2902 37.1574 25.2902 36.7998C25.2933 36.3345 25.2933 35.8724 25.2933 35.4103Z" fill="#3649B8"/>
<path d="M32.3189 2.91787C31.839 2.9147 31.4664 2.81342 31.1506 2.50008C30.6991 2.04748 30.857 0.895394 31.6211 0.680171C32.0631 0.556733 32.4957 0.528248 32.9125 0.677005C33.3798 0.841588 33.6924 1.23089 33.6893 1.81326C33.6861 2.29118 33.2409 2.73429 32.8494 2.84507C32.6599 2.89888 32.4642 2.94002 32.3189 2.91787Z" fill="#3649B8"/>
<path d="M44.0208 14.7331C44.245 14.7109 44.5102 14.7426 44.7629 14.8723C45.186 15.0875 45.4386 15.6224 45.3502 16.0877C45.2649 16.5403 44.9902 16.8062 44.5734 16.9486C44.1534 17.091 43.7335 17.0847 43.323 16.9296C42.5905 16.6543 42.4231 15.9358 42.701 15.3566C42.881 14.9768 43.2251 14.7679 43.6546 14.7362C43.7587 14.7267 43.863 14.7331 44.0208 14.7331Z" fill="#3649B8"/>
<path d="M0.989718 31.8215C0.60134 31.8215 0.298218 31.5272 0.298218 31.1568C0.298218 30.7929 0.613972 30.4922 0.996036 30.4922C1.3781 30.4954 1.6907 30.796 1.68754 31.1632C1.68438 31.5335 1.3781 31.8215 0.989718 31.8215Z" fill="#3649B8"/>
<path d="M15.6501 31.8215C15.2491 31.8184 15.0029 31.5715 15.006 31.179C15.0092 30.7929 15.3154 30.489 15.707 30.4922C16.0543 30.4954 16.4111 30.8467 16.3953 31.1727C16.3795 31.5398 16.0512 31.8247 15.6501 31.8215Z" fill="#3649B8"/>
<path d="M25.7954 31.8216C25.4323 31.8184 25.1071 31.5209 25.1071 31.1886C25.1071 30.8088 25.4323 30.4859 25.8112 30.4923C26.149 30.4986 26.5122 30.8309 26.4838 31.1538C26.4522 31.5114 26.2059 31.8596 25.7954 31.8216Z" fill="#3649B8"/>
</svg>
